%TF.GenerationSoftware,KiCad,Pcbnew,(5.1.6)-1*%
%TF.CreationDate,2020-06-23T15:14:12-07:00*%
%TF.ProjectId,LEDController,4c454443-6f6e-4747-926f-6c6c65722e6b,rev?*%
%TF.SameCoordinates,Original*%
%TF.FileFunction,Legend,Bot*%
%TF.FilePolarity,Positive*%
%FSLAX46Y46*%
G04 Gerber Fmt 4.6, Leading zero omitted, Abs format (unit mm)*
G04 Created by KiCad (PCBNEW (5.1.6)-1) date 2020-06-23 15:14:12*
%MOMM*%
%LPD*%
G01*
G04 APERTURE LIST*
%ADD10C,0.010000*%
G04 APERTURE END LIST*
D10*
%TO.C,G\u002A\u002A\u002A*%
G36*
X113407111Y-46698211D02*
G01*
X113142529Y-46714881D01*
X112864391Y-46724393D01*
X112682904Y-46725147D01*
X112432481Y-46738446D01*
X112237999Y-46801284D01*
X112052959Y-46932705D01*
X111957334Y-47022292D01*
X111811542Y-47152768D01*
X111671222Y-47263282D01*
X111565553Y-47372360D01*
X111477304Y-47545092D01*
X111403111Y-47770487D01*
X111346226Y-47993450D01*
X111305726Y-48197161D01*
X111290444Y-48336483D01*
X111259803Y-48508149D01*
X111199747Y-48637036D01*
X111114250Y-48813042D01*
X111043006Y-49054755D01*
X110996069Y-49315069D01*
X110983498Y-49546880D01*
X110990056Y-49619222D01*
X111002896Y-49759727D01*
X110976993Y-49820372D01*
X110925706Y-49830888D01*
X110817717Y-49871605D01*
X110735048Y-49944155D01*
X110631656Y-50020133D01*
X110456877Y-50070273D01*
X110282589Y-50093931D01*
X110019094Y-50138214D01*
X109834018Y-50214361D01*
X109765116Y-50264002D01*
X109606386Y-50397564D01*
X109631195Y-51426559D01*
X109638916Y-51763092D01*
X109645133Y-52066239D01*
X109649487Y-52315629D01*
X109651619Y-52490891D01*
X109651340Y-52568444D01*
X109648560Y-52657817D01*
X109643540Y-52840902D01*
X109636782Y-53098552D01*
X109628786Y-53411625D01*
X109620054Y-53760975D01*
X109618671Y-53816979D01*
X109590667Y-54952625D01*
X109212889Y-54984989D01*
X108957513Y-55013119D01*
X108658539Y-55055077D01*
X108394992Y-55099248D01*
X108111160Y-55148511D01*
X107926552Y-55164826D01*
X107830070Y-55139181D01*
X107810617Y-55062565D01*
X107857096Y-54925966D01*
X107949575Y-54737566D01*
X108039539Y-54548835D01*
X108097937Y-54399539D01*
X108114620Y-54316481D01*
X108111599Y-54309673D01*
X108038156Y-54302373D01*
X107934022Y-54335252D01*
X107820508Y-54368608D01*
X107743932Y-54323267D01*
X107713893Y-54283822D01*
X107639878Y-54205688D01*
X107558284Y-54217513D01*
X107513257Y-54243511D01*
X107412463Y-54286521D01*
X107309721Y-54266102D01*
X107225148Y-54222069D01*
X107112179Y-54161932D01*
X107066204Y-54163007D01*
X107057146Y-54228879D01*
X107057111Y-54242109D01*
X107042001Y-54316544D01*
X106976090Y-54343500D01*
X106839057Y-54337506D01*
X106621002Y-54316712D01*
X106754390Y-54528012D01*
X106821642Y-54651189D01*
X106862035Y-54780948D01*
X106881988Y-54951209D01*
X106887914Y-55195892D01*
X106887989Y-55234322D01*
X106894478Y-55508040D01*
X106916846Y-55699330D01*
X106959856Y-55838108D01*
X106994613Y-55903840D01*
X107101026Y-56078347D01*
X107810190Y-56116259D01*
X108087718Y-56133190D01*
X108328323Y-56151764D01*
X108507271Y-56169805D01*
X108599824Y-56185134D01*
X108602313Y-56186005D01*
X108702900Y-56273176D01*
X108711210Y-56408492D01*
X108658786Y-56522304D01*
X108568401Y-56660249D01*
X108818187Y-56626012D01*
X108979770Y-56611754D01*
X109074737Y-56635902D01*
X109146746Y-56712712D01*
X109164510Y-56739109D01*
X109264346Y-56858451D01*
X109334730Y-56873156D01*
X109369553Y-56783456D01*
X109372198Y-56731222D01*
X109384838Y-56597810D01*
X109433399Y-56496673D01*
X109536424Y-56412350D01*
X109712457Y-56329379D01*
X109964000Y-56237798D01*
X110108326Y-56197297D01*
X110278349Y-56170111D01*
X110496829Y-56154467D01*
X110786522Y-56148595D01*
X111094368Y-56149842D01*
X111425430Y-56155759D01*
X111746904Y-56165802D01*
X112027491Y-56178708D01*
X112235889Y-56193213D01*
X112279702Y-56197693D01*
X112612111Y-56223763D01*
X113002404Y-56235172D01*
X113414095Y-56232554D01*
X113810701Y-56216543D01*
X114155736Y-56187772D01*
X114338444Y-56161932D01*
X114778236Y-56068761D01*
X115242772Y-55944200D01*
X115712431Y-55795782D01*
X116167589Y-55631043D01*
X116588623Y-55457517D01*
X116955911Y-55282738D01*
X117249829Y-55114242D01*
X117437966Y-54971811D01*
X117621333Y-54729057D01*
X117756816Y-54396975D01*
X117844246Y-53988551D01*
X117883451Y-53516766D01*
X117874259Y-52994605D01*
X117816500Y-52435052D01*
X117710003Y-51851089D01*
X117554596Y-51255701D01*
X117489651Y-51050144D01*
X117419698Y-50859633D01*
X117330404Y-50645430D01*
X117233773Y-50432804D01*
X117141814Y-50247023D01*
X117066531Y-50113356D01*
X117019932Y-50057073D01*
X117017596Y-50056666D01*
X117022459Y-50101098D01*
X117068473Y-50212817D01*
X117095354Y-50268333D01*
X117253133Y-50598479D01*
X117369784Y-50885306D01*
X117466052Y-51179917D01*
X117467711Y-51185555D01*
X117528974Y-51392489D01*
X117585985Y-51582425D01*
X117611305Y-51665333D01*
X117688302Y-51980117D01*
X117752045Y-52366214D01*
X117798034Y-52782385D01*
X117821764Y-53187395D01*
X117818735Y-53540004D01*
X117817755Y-53556222D01*
X117774479Y-54008053D01*
X117703814Y-54365578D01*
X117598330Y-54645603D01*
X117450596Y-54864932D01*
X117253181Y-55040371D01*
X117125641Y-55121434D01*
X116346523Y-55510821D01*
X115517758Y-55817320D01*
X114662971Y-56034503D01*
X113805784Y-56155943D01*
X113232884Y-56180555D01*
X112494212Y-56180888D01*
X112161164Y-55959757D01*
X111751968Y-55659761D01*
X111426918Y-55350794D01*
X111171262Y-55010717D01*
X111027578Y-54729569D01*
X110916918Y-54729569D01*
X110893562Y-54741555D01*
X110845048Y-54695810D01*
X110838889Y-54656888D01*
X110850965Y-54581580D01*
X110861072Y-54572222D01*
X110897468Y-54616359D01*
X110915745Y-54656888D01*
X110916918Y-54729569D01*
X111027578Y-54729569D01*
X110970248Y-54617391D01*
X110809126Y-54148678D01*
X110719488Y-53796111D01*
X110661249Y-53558367D01*
X110607264Y-53368003D01*
X110564474Y-53247855D01*
X110543691Y-53217555D01*
X110518179Y-53222361D01*
X110506614Y-53248814D01*
X110511654Y-53314968D01*
X110535956Y-53438874D01*
X110582181Y-53638586D01*
X110642616Y-53889368D01*
X110735822Y-54323414D01*
X110780779Y-54671823D01*
X110776203Y-54951613D01*
X110720813Y-55179801D01*
X110613326Y-55373405D01*
X110522709Y-55480660D01*
X110417413Y-55629448D01*
X110356007Y-55786556D01*
X110355192Y-55791105D01*
X110289967Y-55951452D01*
X110172778Y-56083566D01*
X110038762Y-56150394D01*
X110012315Y-56152666D01*
X109896533Y-56180970D01*
X109735681Y-56252168D01*
X109566685Y-56345687D01*
X109426471Y-56440958D01*
X109351967Y-56517406D01*
X109350155Y-56521553D01*
X109319888Y-56657020D01*
X109314889Y-56729339D01*
X109308228Y-56798741D01*
X109274761Y-56788145D01*
X109197903Y-56696500D01*
X109047451Y-56576000D01*
X108750444Y-56576000D01*
X108722222Y-56604222D01*
X108694000Y-56576000D01*
X108722222Y-56547777D01*
X108750444Y-56576000D01*
X109047451Y-56576000D01*
X109042772Y-56572253D01*
X108914606Y-56547777D01*
X108799891Y-56536543D01*
X108769568Y-56483764D01*
X108782483Y-56411558D01*
X108771620Y-56253604D01*
X108713003Y-56171340D01*
X108637072Y-56041280D01*
X108603261Y-55883002D01*
X108604239Y-55760565D01*
X108634746Y-55731980D01*
X108718784Y-55778345D01*
X108728275Y-55784553D01*
X108913359Y-55853939D01*
X109124922Y-55860659D01*
X109308537Y-55804685D01*
X109338582Y-55784864D01*
X109437436Y-55704404D01*
X109513097Y-55621233D01*
X109568659Y-55519614D01*
X109607213Y-55383812D01*
X109631850Y-55198090D01*
X109645663Y-54946711D01*
X109651744Y-54613940D01*
X109653184Y-54184038D01*
X109653184Y-54183659D01*
X109656164Y-53705278D01*
X109666049Y-53326687D01*
X109684743Y-53034896D01*
X109714153Y-52816916D01*
X109756184Y-52659759D01*
X109812742Y-52550436D01*
X109885734Y-52475957D01*
X109905822Y-52461881D01*
X110059604Y-52382596D01*
X110228935Y-52326034D01*
X110377645Y-52300829D01*
X110469570Y-52315615D01*
X110478612Y-52325142D01*
X110530592Y-52341793D01*
X110561586Y-52306484D01*
X110610729Y-52266920D01*
X110696930Y-52283121D01*
X110820006Y-52342791D01*
X111003981Y-52453996D01*
X111177683Y-52578511D01*
X111197357Y-52594578D01*
X111324302Y-52688259D01*
X111424598Y-52741293D01*
X111437410Y-52744443D01*
X111774711Y-52839684D01*
X112147683Y-53032572D01*
X112559194Y-53324944D01*
X113012108Y-53718633D01*
X113120624Y-53821954D01*
X113289069Y-53979185D01*
X113392762Y-54063499D01*
X113426946Y-54071415D01*
X113409155Y-54033154D01*
X113305070Y-53903829D01*
X113131490Y-53729883D01*
X112911452Y-53531365D01*
X112667991Y-53328325D01*
X112424144Y-53140812D01*
X112226718Y-53004040D01*
X112014688Y-52884000D01*
X111787365Y-52780207D01*
X111671292Y-52738926D01*
X111480125Y-52661565D01*
X111255806Y-52541643D01*
X111083547Y-52430330D01*
X110902932Y-52314166D01*
X110739784Y-52231821D01*
X110632145Y-52201555D01*
X110528865Y-52173750D01*
X110500227Y-52071526D01*
X110500222Y-52069280D01*
X110522907Y-51904665D01*
X110583490Y-51693118D01*
X110670766Y-51459305D01*
X110773529Y-51227895D01*
X110880573Y-51023556D01*
X110980692Y-50870954D01*
X111062680Y-50794757D01*
X111081157Y-50790472D01*
X111167844Y-50809838D01*
X111321302Y-50859881D01*
X111459778Y-50911188D01*
X111756776Y-50990989D01*
X112102587Y-51030146D01*
X112438865Y-51023524D01*
X112554369Y-51007510D01*
X112608658Y-51004823D01*
X112651739Y-51031200D01*
X112691189Y-51104091D01*
X112734584Y-51240947D01*
X112789501Y-51459219D01*
X112835340Y-51654635D01*
X112979083Y-52047949D01*
X113215644Y-52425454D01*
X113525684Y-52758523D01*
X113650544Y-52861262D01*
X113899528Y-53008762D01*
X114215983Y-53136203D01*
X114554623Y-53228980D01*
X114870162Y-53272489D01*
X114930355Y-53273999D01*
X115107337Y-53261944D01*
X115243806Y-53211626D01*
X115390781Y-53101819D01*
X115432270Y-53065167D01*
X115597424Y-52884726D01*
X115745782Y-52670220D01*
X115793694Y-52580259D01*
X115892571Y-52391725D01*
X116028680Y-52161374D01*
X116172791Y-51938644D01*
X116174694Y-51935862D01*
X116294121Y-51749876D01*
X116382279Y-51590495D01*
X116423264Y-51487047D01*
X116424394Y-51475326D01*
X116401183Y-51463935D01*
X116344829Y-51537746D01*
X116304994Y-51608888D01*
X116208177Y-51776918D01*
X116110337Y-51918643D01*
X116086202Y-51947555D01*
X116010812Y-52052150D01*
X115906608Y-52223149D01*
X115794692Y-52425703D01*
X115782169Y-52449660D01*
X115591921Y-52762558D01*
X115388365Y-53002432D01*
X115184217Y-53157047D01*
X114992197Y-53214164D01*
X114987556Y-53214238D01*
X114772598Y-53192204D01*
X114498005Y-53131347D01*
X114204906Y-53043734D01*
X113934433Y-52941432D01*
X113753456Y-52852182D01*
X113490554Y-52658420D01*
X113274064Y-52406092D01*
X113095220Y-52080484D01*
X112945257Y-51666886D01*
X112861950Y-51355701D01*
X112802120Y-51115539D01*
X112756966Y-50967040D01*
X112716992Y-50891597D01*
X112672704Y-50870600D01*
X112620797Y-50883068D01*
X112433259Y-50919805D01*
X112177646Y-50926224D01*
X111893795Y-50905143D01*
X111621549Y-50859380D01*
X111415355Y-50797811D01*
X111351089Y-50777999D01*
X110901945Y-50777999D01*
X110860316Y-50901357D01*
X110791925Y-51030333D01*
X110683546Y-51242359D01*
X110589596Y-51461729D01*
X110551312Y-51572426D01*
X110503551Y-51704404D01*
X110462977Y-51741804D01*
X110426443Y-51679914D01*
X110390801Y-51514022D01*
X110358337Y-51283574D01*
X110318930Y-50968172D01*
X110548439Y-50851086D01*
X110751632Y-50757005D01*
X110867592Y-50731262D01*
X110901945Y-50777999D01*
X111351089Y-50777999D01*
X111184416Y-50726617D01*
X110939468Y-50683562D01*
X110836799Y-50677555D01*
X110676494Y-50667331D01*
X110575120Y-50641208D01*
X110556667Y-50621111D01*
X110610731Y-50589826D01*
X110764088Y-50568050D01*
X111003480Y-50556525D01*
X111315650Y-50555995D01*
X111588599Y-50563225D01*
X111832546Y-50555997D01*
X112005142Y-50508185D01*
X112068377Y-50472164D01*
X112193721Y-50395333D01*
X111996000Y-50395333D01*
X111927070Y-50420144D01*
X111771436Y-50438319D01*
X111555204Y-50447383D01*
X111442336Y-50447810D01*
X111191439Y-50441468D01*
X111131940Y-50435470D01*
X110740250Y-50435470D01*
X110655305Y-50469242D01*
X110627222Y-50476015D01*
X110487637Y-50532665D01*
X110443783Y-50624298D01*
X110443778Y-50625595D01*
X110469715Y-50714829D01*
X110503553Y-50734000D01*
X110535383Y-50769398D01*
X110524420Y-50796956D01*
X110442519Y-50833228D01*
X110279352Y-50835943D01*
X110236381Y-50831831D01*
X110071018Y-50824004D01*
X110007566Y-50850362D01*
X110008269Y-50867653D01*
X110074972Y-50927581D01*
X110143160Y-50948451D01*
X110198472Y-50969523D01*
X110238789Y-51027501D01*
X110271026Y-51143511D01*
X110302095Y-51338678D01*
X110322183Y-51495487D01*
X110357053Y-51783834D01*
X110376215Y-51979503D01*
X110377281Y-52101917D01*
X110357860Y-52170500D01*
X110315561Y-52204674D01*
X110247995Y-52223862D01*
X110232111Y-52227414D01*
X110069736Y-52289108D01*
X109935819Y-52369755D01*
X109836252Y-52439671D01*
X109786870Y-52437263D01*
X109748489Y-52359174D01*
X109746273Y-52353522D01*
X109728484Y-52254865D01*
X109712205Y-52066819D01*
X109698855Y-51812882D01*
X109689852Y-51516552D01*
X109687685Y-51383111D01*
X109685514Y-51007150D01*
X109690884Y-50728155D01*
X109706217Y-50530321D01*
X109733939Y-50397841D01*
X109776474Y-50314909D01*
X109836248Y-50265718D01*
X109860898Y-50253883D01*
X109973756Y-50219352D01*
X110125621Y-50188615D01*
X110281948Y-50166286D01*
X110408188Y-50156977D01*
X110469795Y-50165300D01*
X110470156Y-50172538D01*
X110488910Y-50234304D01*
X110570985Y-50317425D01*
X110680667Y-50389069D01*
X110726000Y-50407721D01*
X110740250Y-50435470D01*
X111131940Y-50435470D01*
X111050131Y-50427223D01*
X111019701Y-50405241D01*
X111036444Y-50395333D01*
X111146018Y-50369166D01*
X111312865Y-50351928D01*
X111508016Y-50343617D01*
X111702503Y-50344233D01*
X111867358Y-50353778D01*
X111973613Y-50372250D01*
X111996000Y-50395333D01*
X112193721Y-50395333D01*
X112316437Y-50320114D01*
X112514106Y-50242102D01*
X112673142Y-50234596D01*
X112250000Y-50234596D01*
X112200491Y-50258219D01*
X112134580Y-50254886D01*
X111075639Y-50254886D01*
X111036444Y-50282444D01*
X110920097Y-50322107D01*
X110867111Y-50330954D01*
X110772868Y-50310288D01*
X110697778Y-50282444D01*
X110658892Y-50253609D01*
X110716759Y-50238220D01*
X110867111Y-50233934D01*
X111023580Y-50238784D01*
X111075639Y-50254886D01*
X112134580Y-50254886D01*
X112069558Y-50251598D01*
X111883589Y-50217959D01*
X111685556Y-50165612D01*
X111640053Y-50147372D01*
X111121111Y-50147372D01*
X111075020Y-50167103D01*
X111036444Y-50169555D01*
X110961316Y-50140016D01*
X110951778Y-50114882D01*
X110993152Y-50083826D01*
X111036444Y-50092699D01*
X111110712Y-50132762D01*
X111121111Y-50147372D01*
X111640053Y-50147372D01*
X111621277Y-50139846D01*
X111649793Y-50125365D01*
X111780457Y-50118526D01*
X111807939Y-50117962D01*
X112057761Y-50128552D01*
X112206281Y-50170626D01*
X112250000Y-50234596D01*
X112673142Y-50234596D01*
X112692148Y-50233699D01*
X112881332Y-50290475D01*
X112986050Y-50340048D01*
X113169217Y-50465756D01*
X113322859Y-50648328D01*
X113456000Y-50903464D01*
X113577663Y-51246866D01*
X113644889Y-51486419D01*
X113721858Y-51753512D01*
X113795892Y-51962197D01*
X113859239Y-52092105D01*
X113887188Y-52122872D01*
X114192329Y-52279628D01*
X114479102Y-52396276D01*
X114715519Y-52460242D01*
X114760688Y-52466306D01*
X114876615Y-52473675D01*
X114959743Y-52456009D01*
X115034726Y-52394855D01*
X115126218Y-52271759D01*
X115227444Y-52116933D01*
X115341366Y-51927853D01*
X115424660Y-51765407D01*
X115462079Y-51659925D01*
X115462749Y-51648917D01*
X115446788Y-51606941D01*
X115404454Y-51669253D01*
X115392193Y-51694932D01*
X115288184Y-51891583D01*
X115163088Y-52087894D01*
X115035383Y-52259120D01*
X114923545Y-52380512D01*
X114846050Y-52427325D01*
X114845361Y-52427333D01*
X114644890Y-52394812D01*
X114404240Y-52310671D01*
X114168681Y-52195043D01*
X113983479Y-52068061D01*
X113938245Y-52023890D01*
X113885616Y-51926289D01*
X113819413Y-51748941D01*
X113750387Y-51522337D01*
X113717901Y-51398989D01*
X113645449Y-51142031D01*
X113563310Y-50902540D01*
X113485202Y-50718955D01*
X113457009Y-50667942D01*
X113262454Y-50429134D01*
X113025327Y-50244834D01*
X112779092Y-50139983D01*
X112737445Y-50131643D01*
X112573313Y-50080129D01*
X112477874Y-50019037D01*
X112287630Y-50019037D01*
X112279882Y-50052593D01*
X112250000Y-50056666D01*
X112203540Y-50036014D01*
X112212370Y-50019037D01*
X111666741Y-50019037D01*
X111658993Y-50052593D01*
X111629111Y-50056666D01*
X111582651Y-50036014D01*
X111586588Y-50028444D01*
X111403333Y-50028444D01*
X111375111Y-50056666D01*
X111346889Y-50028444D01*
X111375111Y-50000222D01*
X111403333Y-50028444D01*
X111586588Y-50028444D01*
X111591482Y-50019037D01*
X111658468Y-50012281D01*
X111666741Y-50019037D01*
X112212370Y-50019037D01*
X112279357Y-50012281D01*
X112287630Y-50019037D01*
X112477874Y-50019037D01*
X112446921Y-49999224D01*
X112441227Y-49993229D01*
X112332415Y-49913990D01*
X112222354Y-49889921D01*
X112148621Y-49924381D01*
X112137111Y-49966055D01*
X112110098Y-50015213D01*
X112012824Y-50013424D01*
X111953667Y-50000654D01*
X111750190Y-49947995D01*
X111738398Y-49943777D01*
X110951778Y-49943777D01*
X110908825Y-49998582D01*
X110895333Y-50000222D01*
X110840529Y-49957269D01*
X110838889Y-49943777D01*
X110881842Y-49888973D01*
X110895333Y-49887333D01*
X110950138Y-49930286D01*
X110951778Y-49943777D01*
X111738398Y-49943777D01*
X111695703Y-49928506D01*
X111334773Y-49928506D01*
X111278712Y-49942285D01*
X111248111Y-49942913D01*
X111149010Y-49922341D01*
X111121111Y-49887333D01*
X111156644Y-49834811D01*
X111259448Y-49868430D01*
X111290444Y-49887333D01*
X111334773Y-49928506D01*
X111695703Y-49928506D01*
X111637121Y-49907553D01*
X111618648Y-49877197D01*
X111698961Y-49854795D01*
X111882251Y-49838213D01*
X112172705Y-49825320D01*
X112306444Y-49821108D01*
X112643229Y-49809083D01*
X112889819Y-49793753D01*
X113068907Y-49771976D01*
X113203188Y-49740610D01*
X113315354Y-49696512D01*
X113357241Y-49675584D01*
X113543175Y-49565795D01*
X113718707Y-49441168D01*
X113742150Y-49421188D01*
X113597509Y-49421188D01*
X113503988Y-49490953D01*
X113397931Y-49548792D01*
X113225126Y-49625075D01*
X113038080Y-49681438D01*
X112815788Y-49720894D01*
X112537245Y-49746456D01*
X112181444Y-49761139D01*
X111880289Y-49766497D01*
X111534790Y-49765013D01*
X111296815Y-49750945D01*
X111161659Y-49723916D01*
X111132400Y-49706711D01*
X111078584Y-49642795D01*
X111070701Y-49595649D01*
X111120137Y-49563213D01*
X111238276Y-49543424D01*
X111436504Y-49534224D01*
X111726206Y-49533549D01*
X112062611Y-49538313D01*
X112444755Y-49543299D01*
X112733443Y-49541889D01*
X112947984Y-49532913D01*
X113107690Y-49515201D01*
X113231871Y-49487583D01*
X113304510Y-49463071D01*
X113491881Y-49401843D01*
X113591510Y-49389683D01*
X113597509Y-49421188D01*
X113742150Y-49421188D01*
X113858067Y-49322395D01*
X113935482Y-49230171D01*
X113940529Y-49213977D01*
X113764854Y-49213977D01*
X113751104Y-49232487D01*
X113658974Y-49273356D01*
X113518016Y-49325855D01*
X113357781Y-49379256D01*
X113207823Y-49422833D01*
X113153111Y-49436042D01*
X113001460Y-49456275D01*
X112773438Y-49471084D01*
X112494715Y-49480454D01*
X112190959Y-49484371D01*
X111887837Y-49482819D01*
X111611020Y-49475784D01*
X111386176Y-49463251D01*
X111238973Y-49445204D01*
X111209452Y-49437174D01*
X111089820Y-49348169D01*
X111065531Y-49253730D01*
X111075462Y-49171889D01*
X111109320Y-49193619D01*
X111117060Y-49205377D01*
X111211021Y-49264837D01*
X111396565Y-49312303D01*
X111652936Y-49346920D01*
X111959380Y-49367833D01*
X112295141Y-49374187D01*
X112639465Y-49365129D01*
X112971596Y-49339803D01*
X113270779Y-49297354D01*
X113285076Y-49294656D01*
X113496821Y-49255445D01*
X113663749Y-49226969D01*
X113756591Y-49214152D01*
X113764854Y-49213977D01*
X113940529Y-49213977D01*
X113943333Y-49204982D01*
X113890662Y-49165702D01*
X113739231Y-49156663D01*
X113498915Y-49177407D01*
X113179592Y-49227479D01*
X113088791Y-49244484D01*
X112764040Y-49293565D01*
X112434170Y-49311928D01*
X112049353Y-49302103D01*
X112003814Y-49299544D01*
X111681386Y-49277074D01*
X111455126Y-49248725D01*
X111308325Y-49207076D01*
X111224270Y-49144711D01*
X111186253Y-49054208D01*
X111177556Y-48932703D01*
X111199614Y-48769480D01*
X111254604Y-48651464D01*
X111325751Y-48599727D01*
X111396278Y-48635341D01*
X111404566Y-48647550D01*
X111466566Y-48695322D01*
X111495279Y-48685313D01*
X111498317Y-48616780D01*
X111470126Y-48576881D01*
X111404806Y-48473958D01*
X111419036Y-48401099D01*
X111504437Y-48388498D01*
X111521130Y-48393113D01*
X111658419Y-48408887D01*
X111826849Y-48395227D01*
X111831574Y-48394359D01*
X111963858Y-48355629D01*
X112016666Y-48285594D01*
X112020671Y-48239722D01*
X111954796Y-48239722D01*
X111919354Y-48275208D01*
X111808789Y-48287150D01*
X111800985Y-48286886D01*
X111680599Y-48265630D01*
X111628307Y-48224068D01*
X111628247Y-48222820D01*
X111604673Y-48212204D01*
X111574153Y-48249972D01*
X111513941Y-48303323D01*
X111450839Y-48264083D01*
X111409728Y-48177716D01*
X111452498Y-48118481D01*
X111550272Y-48108140D01*
X111623051Y-48134312D01*
X111714548Y-48169592D01*
X111742576Y-48133254D01*
X111742864Y-48125430D01*
X111755252Y-48083703D01*
X111791508Y-48128265D01*
X111860137Y-48190220D01*
X111888011Y-48194587D01*
X111949459Y-48227724D01*
X111954796Y-48239722D01*
X112020671Y-48239722D01*
X112024222Y-48199054D01*
X111992504Y-48055369D01*
X111954065Y-47981538D01*
X111853934Y-47981538D01*
X111815181Y-48002049D01*
X111780648Y-47992634D01*
X111674305Y-47989464D01*
X111568982Y-48016049D01*
X111447500Y-48051630D01*
X111407698Y-48022073D01*
X111430206Y-47916031D01*
X111506299Y-47815894D01*
X111639244Y-47812616D01*
X111745711Y-47857319D01*
X111828006Y-47922562D01*
X111853934Y-47981538D01*
X111954065Y-47981538D01*
X111914375Y-47905308D01*
X111815372Y-47787758D01*
X111723792Y-47741580D01*
X111618757Y-47712494D01*
X111580738Y-47692182D01*
X111523910Y-47606497D01*
X111552897Y-47494918D01*
X111649003Y-47374225D01*
X111793529Y-47261200D01*
X111967781Y-47172625D01*
X112153060Y-47125280D01*
X112216497Y-47121555D01*
X112439012Y-47121555D01*
X112311175Y-47257631D01*
X112228564Y-47381549D01*
X112204726Y-47493940D01*
X112205398Y-47497520D01*
X112229233Y-47548055D01*
X112271489Y-47510870D01*
X112323979Y-47419562D01*
X112435303Y-47258539D01*
X112577155Y-47165863D01*
X112780416Y-47126255D01*
X112926426Y-47121555D01*
X113233645Y-47158745D01*
X113480150Y-47264718D01*
X113601578Y-47371833D01*
X113688645Y-47445099D01*
X113734306Y-47460222D01*
X113746256Y-47429623D01*
X113691832Y-47353386D01*
X113594027Y-47254849D01*
X113475830Y-47157350D01*
X113367581Y-47087970D01*
X113192512Y-47028000D01*
X113043025Y-47008666D01*
X112909920Y-46989078D01*
X112879876Y-46937874D01*
X112912538Y-46905304D01*
X112802341Y-46905304D01*
X112730560Y-46986852D01*
X112627596Y-47018071D01*
X112462954Y-47030132D01*
X112284587Y-47023800D01*
X112140447Y-46999836D01*
X112089532Y-46976654D01*
X112120300Y-46943399D01*
X112221047Y-46882724D01*
X112241952Y-46871717D01*
X112406974Y-46810116D01*
X112567045Y-46787745D01*
X112700644Y-46799534D01*
X112786250Y-46840410D01*
X112802341Y-46905304D01*
X112912538Y-46905304D01*
X112951558Y-46866395D01*
X113066632Y-46808230D01*
X113386523Y-46733918D01*
X113721595Y-46764913D01*
X113925479Y-46836137D01*
X114119827Y-46965507D01*
X114265579Y-47140232D01*
X114335805Y-47325813D01*
X114338444Y-47365140D01*
X114388242Y-47502246D01*
X114523630Y-47655083D01*
X114723601Y-47802223D01*
X114819777Y-47856133D01*
X114998171Y-47967048D01*
X115207953Y-48125109D01*
X115397943Y-48290831D01*
X115587742Y-48466970D01*
X115699943Y-48561430D01*
X115733246Y-48575732D01*
X115686350Y-48511399D01*
X115557954Y-48369954D01*
X115437344Y-48244705D01*
X115250359Y-48069457D01*
X115059381Y-47916351D01*
X114900130Y-47813520D01*
X114873867Y-47800861D01*
X114695387Y-47708080D01*
X114567846Y-47595897D01*
X114464435Y-47433269D01*
X114369137Y-47216347D01*
X114230170Y-46960722D01*
X114044990Y-46793706D01*
X113798713Y-46707283D01*
X113476458Y-46693439D01*
X113407111Y-46698211D01*
G37*
X113407111Y-46698211D02*
X113142529Y-46714881D01*
X112864391Y-46724393D01*
X112682904Y-46725147D01*
X112432481Y-46738446D01*
X112237999Y-46801284D01*
X112052959Y-46932705D01*
X111957334Y-47022292D01*
X111811542Y-47152768D01*
X111671222Y-47263282D01*
X111565553Y-47372360D01*
X111477304Y-47545092D01*
X111403111Y-47770487D01*
X111346226Y-47993450D01*
X111305726Y-48197161D01*
X111290444Y-48336483D01*
X111259803Y-48508149D01*
X111199747Y-48637036D01*
X111114250Y-48813042D01*
X111043006Y-49054755D01*
X110996069Y-49315069D01*
X110983498Y-49546880D01*
X110990056Y-49619222D01*
X111002896Y-49759727D01*
X110976993Y-49820372D01*
X110925706Y-49830888D01*
X110817717Y-49871605D01*
X110735048Y-49944155D01*
X110631656Y-50020133D01*
X110456877Y-50070273D01*
X110282589Y-50093931D01*
X110019094Y-50138214D01*
X109834018Y-50214361D01*
X109765116Y-50264002D01*
X109606386Y-50397564D01*
X109631195Y-51426559D01*
X109638916Y-51763092D01*
X109645133Y-52066239D01*
X109649487Y-52315629D01*
X109651619Y-52490891D01*
X109651340Y-52568444D01*
X109648560Y-52657817D01*
X109643540Y-52840902D01*
X109636782Y-53098552D01*
X109628786Y-53411625D01*
X109620054Y-53760975D01*
X109618671Y-53816979D01*
X109590667Y-54952625D01*
X109212889Y-54984989D01*
X108957513Y-55013119D01*
X108658539Y-55055077D01*
X108394992Y-55099248D01*
X108111160Y-55148511D01*
X107926552Y-55164826D01*
X107830070Y-55139181D01*
X107810617Y-55062565D01*
X107857096Y-54925966D01*
X107949575Y-54737566D01*
X108039539Y-54548835D01*
X108097937Y-54399539D01*
X108114620Y-54316481D01*
X108111599Y-54309673D01*
X108038156Y-54302373D01*
X107934022Y-54335252D01*
X107820508Y-54368608D01*
X107743932Y-54323267D01*
X107713893Y-54283822D01*
X107639878Y-54205688D01*
X107558284Y-54217513D01*
X107513257Y-54243511D01*
X107412463Y-54286521D01*
X107309721Y-54266102D01*
X107225148Y-54222069D01*
X107112179Y-54161932D01*
X107066204Y-54163007D01*
X107057146Y-54228879D01*
X107057111Y-54242109D01*
X107042001Y-54316544D01*
X106976090Y-54343500D01*
X106839057Y-54337506D01*
X106621002Y-54316712D01*
X106754390Y-54528012D01*
X106821642Y-54651189D01*
X106862035Y-54780948D01*
X106881988Y-54951209D01*
X106887914Y-55195892D01*
X106887989Y-55234322D01*
X106894478Y-55508040D01*
X106916846Y-55699330D01*
X106959856Y-55838108D01*
X106994613Y-55903840D01*
X107101026Y-56078347D01*
X107810190Y-56116259D01*
X108087718Y-56133190D01*
X108328323Y-56151764D01*
X108507271Y-56169805D01*
X108599824Y-56185134D01*
X108602313Y-56186005D01*
X108702900Y-56273176D01*
X108711210Y-56408492D01*
X108658786Y-56522304D01*
X108568401Y-56660249D01*
X108818187Y-56626012D01*
X108979770Y-56611754D01*
X109074737Y-56635902D01*
X109146746Y-56712712D01*
X109164510Y-56739109D01*
X109264346Y-56858451D01*
X109334730Y-56873156D01*
X109369553Y-56783456D01*
X109372198Y-56731222D01*
X109384838Y-56597810D01*
X109433399Y-56496673D01*
X109536424Y-56412350D01*
X109712457Y-56329379D01*
X109964000Y-56237798D01*
X110108326Y-56197297D01*
X110278349Y-56170111D01*
X110496829Y-56154467D01*
X110786522Y-56148595D01*
X111094368Y-56149842D01*
X111425430Y-56155759D01*
X111746904Y-56165802D01*
X112027491Y-56178708D01*
X112235889Y-56193213D01*
X112279702Y-56197693D01*
X112612111Y-56223763D01*
X113002404Y-56235172D01*
X113414095Y-56232554D01*
X113810701Y-56216543D01*
X114155736Y-56187772D01*
X114338444Y-56161932D01*
X114778236Y-56068761D01*
X115242772Y-55944200D01*
X115712431Y-55795782D01*
X116167589Y-55631043D01*
X116588623Y-55457517D01*
X116955911Y-55282738D01*
X117249829Y-55114242D01*
X117437966Y-54971811D01*
X117621333Y-54729057D01*
X117756816Y-54396975D01*
X117844246Y-53988551D01*
X117883451Y-53516766D01*
X117874259Y-52994605D01*
X117816500Y-52435052D01*
X117710003Y-51851089D01*
X117554596Y-51255701D01*
X117489651Y-51050144D01*
X117419698Y-50859633D01*
X117330404Y-50645430D01*
X117233773Y-50432804D01*
X117141814Y-50247023D01*
X117066531Y-50113356D01*
X117019932Y-50057073D01*
X117017596Y-50056666D01*
X117022459Y-50101098D01*
X117068473Y-50212817D01*
X117095354Y-50268333D01*
X117253133Y-50598479D01*
X117369784Y-50885306D01*
X117466052Y-51179917D01*
X117467711Y-51185555D01*
X117528974Y-51392489D01*
X117585985Y-51582425D01*
X117611305Y-51665333D01*
X117688302Y-51980117D01*
X117752045Y-52366214D01*
X117798034Y-52782385D01*
X117821764Y-53187395D01*
X117818735Y-53540004D01*
X117817755Y-53556222D01*
X117774479Y-54008053D01*
X117703814Y-54365578D01*
X117598330Y-54645603D01*
X117450596Y-54864932D01*
X117253181Y-55040371D01*
X117125641Y-55121434D01*
X116346523Y-55510821D01*
X115517758Y-55817320D01*
X114662971Y-56034503D01*
X113805784Y-56155943D01*
X113232884Y-56180555D01*
X112494212Y-56180888D01*
X112161164Y-55959757D01*
X111751968Y-55659761D01*
X111426918Y-55350794D01*
X111171262Y-55010717D01*
X111027578Y-54729569D01*
X110916918Y-54729569D01*
X110893562Y-54741555D01*
X110845048Y-54695810D01*
X110838889Y-54656888D01*
X110850965Y-54581580D01*
X110861072Y-54572222D01*
X110897468Y-54616359D01*
X110915745Y-54656888D01*
X110916918Y-54729569D01*
X111027578Y-54729569D01*
X110970248Y-54617391D01*
X110809126Y-54148678D01*
X110719488Y-53796111D01*
X110661249Y-53558367D01*
X110607264Y-53368003D01*
X110564474Y-53247855D01*
X110543691Y-53217555D01*
X110518179Y-53222361D01*
X110506614Y-53248814D01*
X110511654Y-53314968D01*
X110535956Y-53438874D01*
X110582181Y-53638586D01*
X110642616Y-53889368D01*
X110735822Y-54323414D01*
X110780779Y-54671823D01*
X110776203Y-54951613D01*
X110720813Y-55179801D01*
X110613326Y-55373405D01*
X110522709Y-55480660D01*
X110417413Y-55629448D01*
X110356007Y-55786556D01*
X110355192Y-55791105D01*
X110289967Y-55951452D01*
X110172778Y-56083566D01*
X110038762Y-56150394D01*
X110012315Y-56152666D01*
X109896533Y-56180970D01*
X109735681Y-56252168D01*
X109566685Y-56345687D01*
X109426471Y-56440958D01*
X109351967Y-56517406D01*
X109350155Y-56521553D01*
X109319888Y-56657020D01*
X109314889Y-56729339D01*
X109308228Y-56798741D01*
X109274761Y-56788145D01*
X109197903Y-56696500D01*
X109047451Y-56576000D01*
X108750444Y-56576000D01*
X108722222Y-56604222D01*
X108694000Y-56576000D01*
X108722222Y-56547777D01*
X108750444Y-56576000D01*
X109047451Y-56576000D01*
X109042772Y-56572253D01*
X108914606Y-56547777D01*
X108799891Y-56536543D01*
X108769568Y-56483764D01*
X108782483Y-56411558D01*
X108771620Y-56253604D01*
X108713003Y-56171340D01*
X108637072Y-56041280D01*
X108603261Y-55883002D01*
X108604239Y-55760565D01*
X108634746Y-55731980D01*
X108718784Y-55778345D01*
X108728275Y-55784553D01*
X108913359Y-55853939D01*
X109124922Y-55860659D01*
X109308537Y-55804685D01*
X109338582Y-55784864D01*
X109437436Y-55704404D01*
X109513097Y-55621233D01*
X109568659Y-55519614D01*
X109607213Y-55383812D01*
X109631850Y-55198090D01*
X109645663Y-54946711D01*
X109651744Y-54613940D01*
X109653184Y-54184038D01*
X109653184Y-54183659D01*
X109656164Y-53705278D01*
X109666049Y-53326687D01*
X109684743Y-53034896D01*
X109714153Y-52816916D01*
X109756184Y-52659759D01*
X109812742Y-52550436D01*
X109885734Y-52475957D01*
X109905822Y-52461881D01*
X110059604Y-52382596D01*
X110228935Y-52326034D01*
X110377645Y-52300829D01*
X110469570Y-52315615D01*
X110478612Y-52325142D01*
X110530592Y-52341793D01*
X110561586Y-52306484D01*
X110610729Y-52266920D01*
X110696930Y-52283121D01*
X110820006Y-52342791D01*
X111003981Y-52453996D01*
X111177683Y-52578511D01*
X111197357Y-52594578D01*
X111324302Y-52688259D01*
X111424598Y-52741293D01*
X111437410Y-52744443D01*
X111774711Y-52839684D01*
X112147683Y-53032572D01*
X112559194Y-53324944D01*
X113012108Y-53718633D01*
X113120624Y-53821954D01*
X113289069Y-53979185D01*
X113392762Y-54063499D01*
X113426946Y-54071415D01*
X113409155Y-54033154D01*
X113305070Y-53903829D01*
X113131490Y-53729883D01*
X112911452Y-53531365D01*
X112667991Y-53328325D01*
X112424144Y-53140812D01*
X112226718Y-53004040D01*
X112014688Y-52884000D01*
X111787365Y-52780207D01*
X111671292Y-52738926D01*
X111480125Y-52661565D01*
X111255806Y-52541643D01*
X111083547Y-52430330D01*
X110902932Y-52314166D01*
X110739784Y-52231821D01*
X110632145Y-52201555D01*
X110528865Y-52173750D01*
X110500227Y-52071526D01*
X110500222Y-52069280D01*
X110522907Y-51904665D01*
X110583490Y-51693118D01*
X110670766Y-51459305D01*
X110773529Y-51227895D01*
X110880573Y-51023556D01*
X110980692Y-50870954D01*
X111062680Y-50794757D01*
X111081157Y-50790472D01*
X111167844Y-50809838D01*
X111321302Y-50859881D01*
X111459778Y-50911188D01*
X111756776Y-50990989D01*
X112102587Y-51030146D01*
X112438865Y-51023524D01*
X112554369Y-51007510D01*
X112608658Y-51004823D01*
X112651739Y-51031200D01*
X112691189Y-51104091D01*
X112734584Y-51240947D01*
X112789501Y-51459219D01*
X112835340Y-51654635D01*
X112979083Y-52047949D01*
X113215644Y-52425454D01*
X113525684Y-52758523D01*
X113650544Y-52861262D01*
X113899528Y-53008762D01*
X114215983Y-53136203D01*
X114554623Y-53228980D01*
X114870162Y-53272489D01*
X114930355Y-53273999D01*
X115107337Y-53261944D01*
X115243806Y-53211626D01*
X115390781Y-53101819D01*
X115432270Y-53065167D01*
X115597424Y-52884726D01*
X115745782Y-52670220D01*
X115793694Y-52580259D01*
X115892571Y-52391725D01*
X116028680Y-52161374D01*
X116172791Y-51938644D01*
X116174694Y-51935862D01*
X116294121Y-51749876D01*
X116382279Y-51590495D01*
X116423264Y-51487047D01*
X116424394Y-51475326D01*
X116401183Y-51463935D01*
X116344829Y-51537746D01*
X116304994Y-51608888D01*
X116208177Y-51776918D01*
X116110337Y-51918643D01*
X116086202Y-51947555D01*
X116010812Y-52052150D01*
X115906608Y-52223149D01*
X115794692Y-52425703D01*
X115782169Y-52449660D01*
X115591921Y-52762558D01*
X115388365Y-53002432D01*
X115184217Y-53157047D01*
X114992197Y-53214164D01*
X114987556Y-53214238D01*
X114772598Y-53192204D01*
X114498005Y-53131347D01*
X114204906Y-53043734D01*
X113934433Y-52941432D01*
X113753456Y-52852182D01*
X113490554Y-52658420D01*
X113274064Y-52406092D01*
X113095220Y-52080484D01*
X112945257Y-51666886D01*
X112861950Y-51355701D01*
X112802120Y-51115539D01*
X112756966Y-50967040D01*
X112716992Y-50891597D01*
X112672704Y-50870600D01*
X112620797Y-50883068D01*
X112433259Y-50919805D01*
X112177646Y-50926224D01*
X111893795Y-50905143D01*
X111621549Y-50859380D01*
X111415355Y-50797811D01*
X111351089Y-50777999D01*
X110901945Y-50777999D01*
X110860316Y-50901357D01*
X110791925Y-51030333D01*
X110683546Y-51242359D01*
X110589596Y-51461729D01*
X110551312Y-51572426D01*
X110503551Y-51704404D01*
X110462977Y-51741804D01*
X110426443Y-51679914D01*
X110390801Y-51514022D01*
X110358337Y-51283574D01*
X110318930Y-50968172D01*
X110548439Y-50851086D01*
X110751632Y-50757005D01*
X110867592Y-50731262D01*
X110901945Y-50777999D01*
X111351089Y-50777999D01*
X111184416Y-50726617D01*
X110939468Y-50683562D01*
X110836799Y-50677555D01*
X110676494Y-50667331D01*
X110575120Y-50641208D01*
X110556667Y-50621111D01*
X110610731Y-50589826D01*
X110764088Y-50568050D01*
X111003480Y-50556525D01*
X111315650Y-50555995D01*
X111588599Y-50563225D01*
X111832546Y-50555997D01*
X112005142Y-50508185D01*
X112068377Y-50472164D01*
X112193721Y-50395333D01*
X111996000Y-50395333D01*
X111927070Y-50420144D01*
X111771436Y-50438319D01*
X111555204Y-50447383D01*
X111442336Y-50447810D01*
X111191439Y-50441468D01*
X111131940Y-50435470D01*
X110740250Y-50435470D01*
X110655305Y-50469242D01*
X110627222Y-50476015D01*
X110487637Y-50532665D01*
X110443783Y-50624298D01*
X110443778Y-50625595D01*
X110469715Y-50714829D01*
X110503553Y-50734000D01*
X110535383Y-50769398D01*
X110524420Y-50796956D01*
X110442519Y-50833228D01*
X110279352Y-50835943D01*
X110236381Y-50831831D01*
X110071018Y-50824004D01*
X110007566Y-50850362D01*
X110008269Y-50867653D01*
X110074972Y-50927581D01*
X110143160Y-50948451D01*
X110198472Y-50969523D01*
X110238789Y-51027501D01*
X110271026Y-51143511D01*
X110302095Y-51338678D01*
X110322183Y-51495487D01*
X110357053Y-51783834D01*
X110376215Y-51979503D01*
X110377281Y-52101917D01*
X110357860Y-52170500D01*
X110315561Y-52204674D01*
X110247995Y-52223862D01*
X110232111Y-52227414D01*
X110069736Y-52289108D01*
X109935819Y-52369755D01*
X109836252Y-52439671D01*
X109786870Y-52437263D01*
X109748489Y-52359174D01*
X109746273Y-52353522D01*
X109728484Y-52254865D01*
X109712205Y-52066819D01*
X109698855Y-51812882D01*
X109689852Y-51516552D01*
X109687685Y-51383111D01*
X109685514Y-51007150D01*
X109690884Y-50728155D01*
X109706217Y-50530321D01*
X109733939Y-50397841D01*
X109776474Y-50314909D01*
X109836248Y-50265718D01*
X109860898Y-50253883D01*
X109973756Y-50219352D01*
X110125621Y-50188615D01*
X110281948Y-50166286D01*
X110408188Y-50156977D01*
X110469795Y-50165300D01*
X110470156Y-50172538D01*
X110488910Y-50234304D01*
X110570985Y-50317425D01*
X110680667Y-50389069D01*
X110726000Y-50407721D01*
X110740250Y-50435470D01*
X111131940Y-50435470D01*
X111050131Y-50427223D01*
X111019701Y-50405241D01*
X111036444Y-50395333D01*
X111146018Y-50369166D01*
X111312865Y-50351928D01*
X111508016Y-50343617D01*
X111702503Y-50344233D01*
X111867358Y-50353778D01*
X111973613Y-50372250D01*
X111996000Y-50395333D01*
X112193721Y-50395333D01*
X112316437Y-50320114D01*
X112514106Y-50242102D01*
X112673142Y-50234596D01*
X112250000Y-50234596D01*
X112200491Y-50258219D01*
X112134580Y-50254886D01*
X111075639Y-50254886D01*
X111036444Y-50282444D01*
X110920097Y-50322107D01*
X110867111Y-50330954D01*
X110772868Y-50310288D01*
X110697778Y-50282444D01*
X110658892Y-50253609D01*
X110716759Y-50238220D01*
X110867111Y-50233934D01*
X111023580Y-50238784D01*
X111075639Y-50254886D01*
X112134580Y-50254886D01*
X112069558Y-50251598D01*
X111883589Y-50217959D01*
X111685556Y-50165612D01*
X111640053Y-50147372D01*
X111121111Y-50147372D01*
X111075020Y-50167103D01*
X111036444Y-50169555D01*
X110961316Y-50140016D01*
X110951778Y-50114882D01*
X110993152Y-50083826D01*
X111036444Y-50092699D01*
X111110712Y-50132762D01*
X111121111Y-50147372D01*
X111640053Y-50147372D01*
X111621277Y-50139846D01*
X111649793Y-50125365D01*
X111780457Y-50118526D01*
X111807939Y-50117962D01*
X112057761Y-50128552D01*
X112206281Y-50170626D01*
X112250000Y-50234596D01*
X112673142Y-50234596D01*
X112692148Y-50233699D01*
X112881332Y-50290475D01*
X112986050Y-50340048D01*
X113169217Y-50465756D01*
X113322859Y-50648328D01*
X113456000Y-50903464D01*
X113577663Y-51246866D01*
X113644889Y-51486419D01*
X113721858Y-51753512D01*
X113795892Y-51962197D01*
X113859239Y-52092105D01*
X113887188Y-52122872D01*
X114192329Y-52279628D01*
X114479102Y-52396276D01*
X114715519Y-52460242D01*
X114760688Y-52466306D01*
X114876615Y-52473675D01*
X114959743Y-52456009D01*
X115034726Y-52394855D01*
X115126218Y-52271759D01*
X115227444Y-52116933D01*
X115341366Y-51927853D01*
X115424660Y-51765407D01*
X115462079Y-51659925D01*
X115462749Y-51648917D01*
X115446788Y-51606941D01*
X115404454Y-51669253D01*
X115392193Y-51694932D01*
X115288184Y-51891583D01*
X115163088Y-52087894D01*
X115035383Y-52259120D01*
X114923545Y-52380512D01*
X114846050Y-52427325D01*
X114845361Y-52427333D01*
X114644890Y-52394812D01*
X114404240Y-52310671D01*
X114168681Y-52195043D01*
X113983479Y-52068061D01*
X113938245Y-52023890D01*
X113885616Y-51926289D01*
X113819413Y-51748941D01*
X113750387Y-51522337D01*
X113717901Y-51398989D01*
X113645449Y-51142031D01*
X113563310Y-50902540D01*
X113485202Y-50718955D01*
X113457009Y-50667942D01*
X113262454Y-50429134D01*
X113025327Y-50244834D01*
X112779092Y-50139983D01*
X112737445Y-50131643D01*
X112573313Y-50080129D01*
X112477874Y-50019037D01*
X112287630Y-50019037D01*
X112279882Y-50052593D01*
X112250000Y-50056666D01*
X112203540Y-50036014D01*
X112212370Y-50019037D01*
X111666741Y-50019037D01*
X111658993Y-50052593D01*
X111629111Y-50056666D01*
X111582651Y-50036014D01*
X111586588Y-50028444D01*
X111403333Y-50028444D01*
X111375111Y-50056666D01*
X111346889Y-50028444D01*
X111375111Y-50000222D01*
X111403333Y-50028444D01*
X111586588Y-50028444D01*
X111591482Y-50019037D01*
X111658468Y-50012281D01*
X111666741Y-50019037D01*
X112212370Y-50019037D01*
X112279357Y-50012281D01*
X112287630Y-50019037D01*
X112477874Y-50019037D01*
X112446921Y-49999224D01*
X112441227Y-49993229D01*
X112332415Y-49913990D01*
X112222354Y-49889921D01*
X112148621Y-49924381D01*
X112137111Y-49966055D01*
X112110098Y-50015213D01*
X112012824Y-50013424D01*
X111953667Y-50000654D01*
X111750190Y-49947995D01*
X111738398Y-49943777D01*
X110951778Y-49943777D01*
X110908825Y-49998582D01*
X110895333Y-50000222D01*
X110840529Y-49957269D01*
X110838889Y-49943777D01*
X110881842Y-49888973D01*
X110895333Y-49887333D01*
X110950138Y-49930286D01*
X110951778Y-49943777D01*
X111738398Y-49943777D01*
X111695703Y-49928506D01*
X111334773Y-49928506D01*
X111278712Y-49942285D01*
X111248111Y-49942913D01*
X111149010Y-49922341D01*
X111121111Y-49887333D01*
X111156644Y-49834811D01*
X111259448Y-49868430D01*
X111290444Y-49887333D01*
X111334773Y-49928506D01*
X111695703Y-49928506D01*
X111637121Y-49907553D01*
X111618648Y-49877197D01*
X111698961Y-49854795D01*
X111882251Y-49838213D01*
X112172705Y-49825320D01*
X112306444Y-49821108D01*
X112643229Y-49809083D01*
X112889819Y-49793753D01*
X113068907Y-49771976D01*
X113203188Y-49740610D01*
X113315354Y-49696512D01*
X113357241Y-49675584D01*
X113543175Y-49565795D01*
X113718707Y-49441168D01*
X113742150Y-49421188D01*
X113597509Y-49421188D01*
X113503988Y-49490953D01*
X113397931Y-49548792D01*
X113225126Y-49625075D01*
X113038080Y-49681438D01*
X112815788Y-49720894D01*
X112537245Y-49746456D01*
X112181444Y-49761139D01*
X111880289Y-49766497D01*
X111534790Y-49765013D01*
X111296815Y-49750945D01*
X111161659Y-49723916D01*
X111132400Y-49706711D01*
X111078584Y-49642795D01*
X111070701Y-49595649D01*
X111120137Y-49563213D01*
X111238276Y-49543424D01*
X111436504Y-49534224D01*
X111726206Y-49533549D01*
X112062611Y-49538313D01*
X112444755Y-49543299D01*
X112733443Y-49541889D01*
X112947984Y-49532913D01*
X113107690Y-49515201D01*
X113231871Y-49487583D01*
X113304510Y-49463071D01*
X113491881Y-49401843D01*
X113591510Y-49389683D01*
X113597509Y-49421188D01*
X113742150Y-49421188D01*
X113858067Y-49322395D01*
X113935482Y-49230171D01*
X113940529Y-49213977D01*
X113764854Y-49213977D01*
X113751104Y-49232487D01*
X113658974Y-49273356D01*
X113518016Y-49325855D01*
X113357781Y-49379256D01*
X113207823Y-49422833D01*
X113153111Y-49436042D01*
X113001460Y-49456275D01*
X112773438Y-49471084D01*
X112494715Y-49480454D01*
X112190959Y-49484371D01*
X111887837Y-49482819D01*
X111611020Y-49475784D01*
X111386176Y-49463251D01*
X111238973Y-49445204D01*
X111209452Y-49437174D01*
X111089820Y-49348169D01*
X111065531Y-49253730D01*
X111075462Y-49171889D01*
X111109320Y-49193619D01*
X111117060Y-49205377D01*
X111211021Y-49264837D01*
X111396565Y-49312303D01*
X111652936Y-49346920D01*
X111959380Y-49367833D01*
X112295141Y-49374187D01*
X112639465Y-49365129D01*
X112971596Y-49339803D01*
X113270779Y-49297354D01*
X113285076Y-49294656D01*
X113496821Y-49255445D01*
X113663749Y-49226969D01*
X113756591Y-49214152D01*
X113764854Y-49213977D01*
X113940529Y-49213977D01*
X113943333Y-49204982D01*
X113890662Y-49165702D01*
X113739231Y-49156663D01*
X113498915Y-49177407D01*
X113179592Y-49227479D01*
X113088791Y-49244484D01*
X112764040Y-49293565D01*
X112434170Y-49311928D01*
X112049353Y-49302103D01*
X112003814Y-49299544D01*
X111681386Y-49277074D01*
X111455126Y-49248725D01*
X111308325Y-49207076D01*
X111224270Y-49144711D01*
X111186253Y-49054208D01*
X111177556Y-48932703D01*
X111199614Y-48769480D01*
X111254604Y-48651464D01*
X111325751Y-48599727D01*
X111396278Y-48635341D01*
X111404566Y-48647550D01*
X111466566Y-48695322D01*
X111495279Y-48685313D01*
X111498317Y-48616780D01*
X111470126Y-48576881D01*
X111404806Y-48473958D01*
X111419036Y-48401099D01*
X111504437Y-48388498D01*
X111521130Y-48393113D01*
X111658419Y-48408887D01*
X111826849Y-48395227D01*
X111831574Y-48394359D01*
X111963858Y-48355629D01*
X112016666Y-48285594D01*
X112020671Y-48239722D01*
X111954796Y-48239722D01*
X111919354Y-48275208D01*
X111808789Y-48287150D01*
X111800985Y-48286886D01*
X111680599Y-48265630D01*
X111628307Y-48224068D01*
X111628247Y-48222820D01*
X111604673Y-48212204D01*
X111574153Y-48249972D01*
X111513941Y-48303323D01*
X111450839Y-48264083D01*
X111409728Y-48177716D01*
X111452498Y-48118481D01*
X111550272Y-48108140D01*
X111623051Y-48134312D01*
X111714548Y-48169592D01*
X111742576Y-48133254D01*
X111742864Y-48125430D01*
X111755252Y-48083703D01*
X111791508Y-48128265D01*
X111860137Y-48190220D01*
X111888011Y-48194587D01*
X111949459Y-48227724D01*
X111954796Y-48239722D01*
X112020671Y-48239722D01*
X112024222Y-48199054D01*
X111992504Y-48055369D01*
X111954065Y-47981538D01*
X111853934Y-47981538D01*
X111815181Y-48002049D01*
X111780648Y-47992634D01*
X111674305Y-47989464D01*
X111568982Y-48016049D01*
X111447500Y-48051630D01*
X111407698Y-48022073D01*
X111430206Y-47916031D01*
X111506299Y-47815894D01*
X111639244Y-47812616D01*
X111745711Y-47857319D01*
X111828006Y-47922562D01*
X111853934Y-47981538D01*
X111954065Y-47981538D01*
X111914375Y-47905308D01*
X111815372Y-47787758D01*
X111723792Y-47741580D01*
X111618757Y-47712494D01*
X111580738Y-47692182D01*
X111523910Y-47606497D01*
X111552897Y-47494918D01*
X111649003Y-47374225D01*
X111793529Y-47261200D01*
X111967781Y-47172625D01*
X112153060Y-47125280D01*
X112216497Y-47121555D01*
X112439012Y-47121555D01*
X112311175Y-47257631D01*
X112228564Y-47381549D01*
X112204726Y-47493940D01*
X112205398Y-47497520D01*
X112229233Y-47548055D01*
X112271489Y-47510870D01*
X112323979Y-47419562D01*
X112435303Y-47258539D01*
X112577155Y-47165863D01*
X112780416Y-47126255D01*
X112926426Y-47121555D01*
X113233645Y-47158745D01*
X113480150Y-47264718D01*
X113601578Y-47371833D01*
X113688645Y-47445099D01*
X113734306Y-47460222D01*
X113746256Y-47429623D01*
X113691832Y-47353386D01*
X113594027Y-47254849D01*
X113475830Y-47157350D01*
X113367581Y-47087970D01*
X113192512Y-47028000D01*
X113043025Y-47008666D01*
X112909920Y-46989078D01*
X112879876Y-46937874D01*
X112912538Y-46905304D01*
X112802341Y-46905304D01*
X112730560Y-46986852D01*
X112627596Y-47018071D01*
X112462954Y-47030132D01*
X112284587Y-47023800D01*
X112140447Y-46999836D01*
X112089532Y-46976654D01*
X112120300Y-46943399D01*
X112221047Y-46882724D01*
X112241952Y-46871717D01*
X112406974Y-46810116D01*
X112567045Y-46787745D01*
X112700644Y-46799534D01*
X112786250Y-46840410D01*
X112802341Y-46905304D01*
X112912538Y-46905304D01*
X112951558Y-46866395D01*
X113066632Y-46808230D01*
X113386523Y-46733918D01*
X113721595Y-46764913D01*
X113925479Y-46836137D01*
X114119827Y-46965507D01*
X114265579Y-47140232D01*
X114335805Y-47325813D01*
X114338444Y-47365140D01*
X114388242Y-47502246D01*
X114523630Y-47655083D01*
X114723601Y-47802223D01*
X114819777Y-47856133D01*
X114998171Y-47967048D01*
X115207953Y-48125109D01*
X115397943Y-48290831D01*
X115587742Y-48466970D01*
X115699943Y-48561430D01*
X115733246Y-48575732D01*
X115686350Y-48511399D01*
X115557954Y-48369954D01*
X115437344Y-48244705D01*
X115250359Y-48069457D01*
X115059381Y-47916351D01*
X114900130Y-47813520D01*
X114873867Y-47800861D01*
X114695387Y-47708080D01*
X114567846Y-47595897D01*
X114464435Y-47433269D01*
X114369137Y-47216347D01*
X114230170Y-46960722D01*
X114044990Y-46793706D01*
X113798713Y-46707283D01*
X113476458Y-46693439D01*
X113407111Y-46698211D01*
G36*
X116934889Y-49972000D02*
G01*
X116963111Y-50000222D01*
X116991333Y-49972000D01*
X116963111Y-49943777D01*
X116934889Y-49972000D01*
G37*
X116934889Y-49972000D02*
X116963111Y-50000222D01*
X116991333Y-49972000D01*
X116963111Y-49943777D01*
X116934889Y-49972000D01*
G36*
X116060000Y-48868519D02*
G01*
X116206616Y-49027283D01*
X116328420Y-49157282D01*
X116400859Y-49232332D01*
X116404025Y-49235408D01*
X116473656Y-49317825D01*
X116570993Y-49450142D01*
X116600047Y-49492222D01*
X116689960Y-49616321D01*
X116783380Y-49733173D01*
X116863081Y-49823541D01*
X116911840Y-49868191D01*
X116912430Y-49847885D01*
X116903308Y-49830888D01*
X116786771Y-49655908D01*
X116615153Y-49433968D01*
X116414650Y-49196454D01*
X116211459Y-48974750D01*
X116078820Y-48843111D01*
X115777778Y-48560888D01*
X116060000Y-48868519D01*
G37*
X116060000Y-48868519D02*
X116206616Y-49027283D01*
X116328420Y-49157282D01*
X116400859Y-49232332D01*
X116404025Y-49235408D01*
X116473656Y-49317825D01*
X116570993Y-49450142D01*
X116600047Y-49492222D01*
X116689960Y-49616321D01*
X116783380Y-49733173D01*
X116863081Y-49823541D01*
X116911840Y-49868191D01*
X116912430Y-49847885D01*
X116903308Y-49830888D01*
X116786771Y-49655908D01*
X116615153Y-49433968D01*
X116414650Y-49196454D01*
X116211459Y-48974750D01*
X116078820Y-48843111D01*
X115777778Y-48560888D01*
X116060000Y-48868519D01*
G36*
X112589328Y-47737643D02*
G01*
X112424629Y-47870125D01*
X112362715Y-47968563D01*
X112281066Y-48142359D01*
X112260485Y-48249934D01*
X112304950Y-48322455D01*
X112416530Y-48390106D01*
X112612759Y-48461653D01*
X112809351Y-48459314D01*
X113044739Y-48381632D01*
X113082556Y-48364853D01*
X113242950Y-48302937D01*
X113312233Y-48306277D01*
X113292844Y-48376945D01*
X113217951Y-48479871D01*
X113127923Y-48559313D01*
X112996343Y-48606202D01*
X112788871Y-48632354D01*
X112770907Y-48633693D01*
X112575365Y-48642992D01*
X112459374Y-48630390D01*
X112390540Y-48588540D01*
X112353823Y-48539124D01*
X112272154Y-48440974D01*
X112213214Y-48427689D01*
X112195586Y-48490333D01*
X112243038Y-48603064D01*
X112361605Y-48746277D01*
X112523334Y-48896327D01*
X112700270Y-49029570D01*
X112864461Y-49122361D01*
X112977543Y-49151760D01*
X113037257Y-49142590D01*
X113003747Y-49103412D01*
X112973893Y-49081204D01*
X112861408Y-49007199D01*
X112711084Y-48916952D01*
X112691671Y-48905849D01*
X112504000Y-48799255D01*
X112838508Y-48730628D01*
X113085986Y-48660268D01*
X113251990Y-48561944D01*
X113304174Y-48509519D01*
X113405720Y-48369999D01*
X113433822Y-48278878D01*
X113393000Y-48250517D01*
X113367111Y-48200274D01*
X113355347Y-48100928D01*
X113309052Y-48100928D01*
X113298736Y-48160041D01*
X113223667Y-48228315D01*
X113120398Y-48294597D01*
X113050934Y-48287375D01*
X112995067Y-48239155D01*
X112983779Y-48222222D01*
X112870889Y-48222222D01*
X112840411Y-48297336D01*
X112814444Y-48306888D01*
X112764368Y-48261171D01*
X112758000Y-48222222D01*
X112701556Y-48222222D01*
X112677324Y-48330570D01*
X112586219Y-48363095D01*
X112571733Y-48363333D01*
X112441292Y-48337439D01*
X112378589Y-48300010D01*
X112334900Y-48202836D01*
X112385507Y-48121825D01*
X112512165Y-48081991D01*
X112538261Y-48081111D01*
X112656473Y-48097664D01*
X112698433Y-48167035D01*
X112701556Y-48222222D01*
X112758000Y-48222222D01*
X112788478Y-48147107D01*
X112814444Y-48137555D01*
X112864521Y-48183273D01*
X112870889Y-48222222D01*
X112983779Y-48222222D01*
X112932826Y-48145796D01*
X112950607Y-48087943D01*
X112983778Y-48081111D01*
X113034840Y-48127957D01*
X113046770Y-48179888D01*
X113054654Y-48249453D01*
X113071315Y-48209370D01*
X113079131Y-48179888D01*
X113149392Y-48097611D01*
X113213694Y-48081111D01*
X113309052Y-48100928D01*
X113355347Y-48100928D01*
X113352143Y-48073878D01*
X113350667Y-48011346D01*
X113349028Y-47971054D01*
X113292472Y-47971054D01*
X113226206Y-47997035D01*
X113087337Y-48014466D01*
X112909881Y-48022996D01*
X112727851Y-48022272D01*
X112575262Y-48011942D01*
X112486129Y-47991653D01*
X112475778Y-47979511D01*
X112527533Y-47881694D01*
X112669868Y-47818529D01*
X112857666Y-47798888D01*
X113055010Y-47815300D01*
X113207768Y-47858102D01*
X113291573Y-47917647D01*
X113292472Y-47971054D01*
X113349028Y-47971054D01*
X113344510Y-47860054D01*
X113305366Y-47782790D01*
X113202222Y-47741447D01*
X113115139Y-47721951D01*
X112816215Y-47689327D01*
X112589328Y-47737643D01*
G37*
X112589328Y-47737643D02*
X112424629Y-47870125D01*
X112362715Y-47968563D01*
X112281066Y-48142359D01*
X112260485Y-48249934D01*
X112304950Y-48322455D01*
X112416530Y-48390106D01*
X112612759Y-48461653D01*
X112809351Y-48459314D01*
X113044739Y-48381632D01*
X113082556Y-48364853D01*
X113242950Y-48302937D01*
X113312233Y-48306277D01*
X113292844Y-48376945D01*
X113217951Y-48479871D01*
X113127923Y-48559313D01*
X112996343Y-48606202D01*
X112788871Y-48632354D01*
X112770907Y-48633693D01*
X112575365Y-48642992D01*
X112459374Y-48630390D01*
X112390540Y-48588540D01*
X112353823Y-48539124D01*
X112272154Y-48440974D01*
X112213214Y-48427689D01*
X112195586Y-48490333D01*
X112243038Y-48603064D01*
X112361605Y-48746277D01*
X112523334Y-48896327D01*
X112700270Y-49029570D01*
X112864461Y-49122361D01*
X112977543Y-49151760D01*
X113037257Y-49142590D01*
X113003747Y-49103412D01*
X112973893Y-49081204D01*
X112861408Y-49007199D01*
X112711084Y-48916952D01*
X112691671Y-48905849D01*
X112504000Y-48799255D01*
X112838508Y-48730628D01*
X113085986Y-48660268D01*
X113251990Y-48561944D01*
X113304174Y-48509519D01*
X113405720Y-48369999D01*
X113433822Y-48278878D01*
X113393000Y-48250517D01*
X113367111Y-48200274D01*
X113355347Y-48100928D01*
X113309052Y-48100928D01*
X113298736Y-48160041D01*
X113223667Y-48228315D01*
X113120398Y-48294597D01*
X113050934Y-48287375D01*
X112995067Y-48239155D01*
X112983779Y-48222222D01*
X112870889Y-48222222D01*
X112840411Y-48297336D01*
X112814444Y-48306888D01*
X112764368Y-48261171D01*
X112758000Y-48222222D01*
X112701556Y-48222222D01*
X112677324Y-48330570D01*
X112586219Y-48363095D01*
X112571733Y-48363333D01*
X112441292Y-48337439D01*
X112378589Y-48300010D01*
X112334900Y-48202836D01*
X112385507Y-48121825D01*
X112512165Y-48081991D01*
X112538261Y-48081111D01*
X112656473Y-48097664D01*
X112698433Y-48167035D01*
X112701556Y-48222222D01*
X112758000Y-48222222D01*
X112788478Y-48147107D01*
X112814444Y-48137555D01*
X112864521Y-48183273D01*
X112870889Y-48222222D01*
X112983779Y-48222222D01*
X112932826Y-48145796D01*
X112950607Y-48087943D01*
X112983778Y-48081111D01*
X113034840Y-48127957D01*
X113046770Y-48179888D01*
X113054654Y-48249453D01*
X113071315Y-48209370D01*
X113079131Y-48179888D01*
X113149392Y-48097611D01*
X113213694Y-48081111D01*
X113309052Y-48100928D01*
X113355347Y-48100928D01*
X113352143Y-48073878D01*
X113350667Y-48011346D01*
X113349028Y-47971054D01*
X113292472Y-47971054D01*
X113226206Y-47997035D01*
X113087337Y-48014466D01*
X112909881Y-48022996D01*
X112727851Y-48022272D01*
X112575262Y-48011942D01*
X112486129Y-47991653D01*
X112475778Y-47979511D01*
X112527533Y-47881694D01*
X112669868Y-47818529D01*
X112857666Y-47798888D01*
X113055010Y-47815300D01*
X113207768Y-47858102D01*
X113291573Y-47917647D01*
X113292472Y-47971054D01*
X113349028Y-47971054D01*
X113344510Y-47860054D01*
X113305366Y-47782790D01*
X113202222Y-47741447D01*
X113115139Y-47721951D01*
X112816215Y-47689327D01*
X112589328Y-47737643D01*
G36*
X111890590Y-48511392D02*
G01*
X111788800Y-48598670D01*
X111759019Y-48626491D01*
X111674437Y-48717798D01*
X111676856Y-48746817D01*
X111700973Y-48740650D01*
X111768988Y-48728051D01*
X111758214Y-48783416D01*
X111743003Y-48813015D01*
X111671327Y-48916823D01*
X111628808Y-48956187D01*
X111577287Y-49023324D01*
X111589619Y-49085343D01*
X111623536Y-49097111D01*
X111682068Y-49052943D01*
X111764263Y-48943199D01*
X111786853Y-48906524D01*
X111876282Y-48738504D01*
X111937170Y-48592912D01*
X111959131Y-48497782D01*
X111946267Y-48476222D01*
X111890590Y-48511392D01*
G37*
X111890590Y-48511392D02*
X111788800Y-48598670D01*
X111759019Y-48626491D01*
X111674437Y-48717798D01*
X111676856Y-48746817D01*
X111700973Y-48740650D01*
X111768988Y-48728051D01*
X111758214Y-48783416D01*
X111743003Y-48813015D01*
X111671327Y-48916823D01*
X111628808Y-48956187D01*
X111577287Y-49023324D01*
X111589619Y-49085343D01*
X111623536Y-49097111D01*
X111682068Y-49052943D01*
X111764263Y-48943199D01*
X111786853Y-48906524D01*
X111876282Y-48738504D01*
X111937170Y-48592912D01*
X111959131Y-48497782D01*
X111946267Y-48476222D01*
X111890590Y-48511392D01*
G36*
X111742000Y-48222222D02*
G01*
X111770222Y-48250444D01*
X111798444Y-48222222D01*
X111770222Y-48194000D01*
X111742000Y-48222222D01*
G37*
X111742000Y-48222222D02*
X111770222Y-48250444D01*
X111798444Y-48222222D01*
X111770222Y-48194000D01*
X111742000Y-48222222D01*
%TD*%
M02*
