%TF.GenerationSoftware,KiCad,Pcbnew,(5.1.6)-1*%
%TF.CreationDate,2020-06-23T15:14:12-07:00*%
%TF.ProjectId,LEDController,4c454443-6f6e-4747-926f-6c6c65722e6b,rev?*%
%TF.SameCoordinates,Original*%
%TF.FileFunction,Legend,Top*%
%TF.FilePolarity,Positive*%
%FSLAX46Y46*%
G04 Gerber Fmt 4.6, Leading zero omitted, Abs format (unit mm)*
G04 Created by KiCad (PCBNEW (5.1.6)-1) date 2020-06-23 15:14:12*
%MOMM*%
%LPD*%
G01*
G04 APERTURE LIST*
%ADD10C,0.120000*%
%ADD11C,0.180000*%
%ADD12C,0.203200*%
G04 APERTURE END LIST*
D10*
X97667857Y-66339285D02*
X97667857Y-65589285D01*
X97953571Y-65589285D01*
X98025000Y-65625000D01*
X98060714Y-65660714D01*
X98096428Y-65732142D01*
X98096428Y-65839285D01*
X98060714Y-65910714D01*
X98025000Y-65946428D01*
X97953571Y-65982142D01*
X97667857Y-65982142D01*
X98560714Y-65589285D02*
X98703571Y-65589285D01*
X98775000Y-65625000D01*
X98846428Y-65696428D01*
X98882142Y-65839285D01*
X98882142Y-66089285D01*
X98846428Y-66232142D01*
X98775000Y-66303571D01*
X98703571Y-66339285D01*
X98560714Y-66339285D01*
X98489285Y-66303571D01*
X98417857Y-66232142D01*
X98382142Y-66089285D01*
X98382142Y-65839285D01*
X98417857Y-65696428D01*
X98489285Y-65625000D01*
X98560714Y-65589285D01*
X99132142Y-65589285D02*
X99310714Y-66339285D01*
X99453571Y-65803571D01*
X99596428Y-66339285D01*
X99775000Y-65589285D01*
X100060714Y-65946428D02*
X100310714Y-65946428D01*
X100417857Y-66339285D02*
X100060714Y-66339285D01*
X100060714Y-65589285D01*
X100417857Y-65589285D01*
X101167857Y-66339285D02*
X100917857Y-65982142D01*
X100739285Y-66339285D02*
X100739285Y-65589285D01*
X101025000Y-65589285D01*
X101096428Y-65625000D01*
X101132142Y-65660714D01*
X101167857Y-65732142D01*
X101167857Y-65839285D01*
X101132142Y-65910714D01*
X101096428Y-65946428D01*
X101025000Y-65982142D01*
X100739285Y-65982142D01*
D11*
X114692857Y-75863571D02*
X113978571Y-75863571D01*
X113978571Y-74363571D01*
X115192857Y-75077857D02*
X115692857Y-75077857D01*
X115907142Y-75863571D02*
X115192857Y-75863571D01*
X115192857Y-74363571D01*
X115907142Y-74363571D01*
X116550000Y-75863571D02*
X116550000Y-74363571D01*
X116907142Y-74363571D01*
X117121428Y-74435000D01*
X117264285Y-74577857D01*
X117335714Y-74720714D01*
X117407142Y-75006428D01*
X117407142Y-75220714D01*
X117335714Y-75506428D01*
X117264285Y-75649285D01*
X117121428Y-75792142D01*
X116907142Y-75863571D01*
X116550000Y-75863571D01*
X120050000Y-75720714D02*
X119978571Y-75792142D01*
X119764285Y-75863571D01*
X119621428Y-75863571D01*
X119407142Y-75792142D01*
X119264285Y-75649285D01*
X119192857Y-75506428D01*
X119121428Y-75220714D01*
X119121428Y-75006428D01*
X119192857Y-74720714D01*
X119264285Y-74577857D01*
X119407142Y-74435000D01*
X119621428Y-74363571D01*
X119764285Y-74363571D01*
X119978571Y-74435000D01*
X120050000Y-74506428D01*
X120907142Y-75863571D02*
X120764285Y-75792142D01*
X120692857Y-75720714D01*
X120621428Y-75577857D01*
X120621428Y-75149285D01*
X120692857Y-75006428D01*
X120764285Y-74935000D01*
X120907142Y-74863571D01*
X121121428Y-74863571D01*
X121264285Y-74935000D01*
X121335714Y-75006428D01*
X121407142Y-75149285D01*
X121407142Y-75577857D01*
X121335714Y-75720714D01*
X121264285Y-75792142D01*
X121121428Y-75863571D01*
X120907142Y-75863571D01*
X122050000Y-74863571D02*
X122050000Y-75863571D01*
X122050000Y-75006428D02*
X122121428Y-74935000D01*
X122264285Y-74863571D01*
X122478571Y-74863571D01*
X122621428Y-74935000D01*
X122692857Y-75077857D01*
X122692857Y-75863571D01*
X123192857Y-74863571D02*
X123764285Y-74863571D01*
X123407142Y-74363571D02*
X123407142Y-75649285D01*
X123478571Y-75792142D01*
X123621428Y-75863571D01*
X123764285Y-75863571D01*
X124264285Y-75863571D02*
X124264285Y-74863571D01*
X124264285Y-75149285D02*
X124335714Y-75006428D01*
X124407142Y-74935000D01*
X124550000Y-74863571D01*
X124692857Y-74863571D01*
X125407142Y-75863571D02*
X125264285Y-75792142D01*
X125192857Y-75720714D01*
X125121428Y-75577857D01*
X125121428Y-75149285D01*
X125192857Y-75006428D01*
X125264285Y-74935000D01*
X125407142Y-74863571D01*
X125621428Y-74863571D01*
X125764285Y-74935000D01*
X125835714Y-75006428D01*
X125907142Y-75149285D01*
X125907142Y-75577857D01*
X125835714Y-75720714D01*
X125764285Y-75792142D01*
X125621428Y-75863571D01*
X125407142Y-75863571D01*
X126764285Y-75863571D02*
X126621428Y-75792142D01*
X126550000Y-75649285D01*
X126550000Y-74363571D01*
X127550000Y-75863571D02*
X127407142Y-75792142D01*
X127335714Y-75649285D01*
X127335714Y-74363571D01*
X128692857Y-75792142D02*
X128550000Y-75863571D01*
X128264285Y-75863571D01*
X128121428Y-75792142D01*
X128050000Y-75649285D01*
X128050000Y-75077857D01*
X128121428Y-74935000D01*
X128264285Y-74863571D01*
X128550000Y-74863571D01*
X128692857Y-74935000D01*
X128764285Y-75077857D01*
X128764285Y-75220714D01*
X128050000Y-75363571D01*
X129407142Y-75863571D02*
X129407142Y-74863571D01*
X129407142Y-75149285D02*
X129478571Y-75006428D01*
X129550000Y-74935000D01*
X129692857Y-74863571D01*
X129835714Y-74863571D01*
X114335714Y-77507857D02*
X114550000Y-77579285D01*
X114621428Y-77650714D01*
X114692857Y-77793571D01*
X114692857Y-78007857D01*
X114621428Y-78150714D01*
X114550000Y-78222142D01*
X114407142Y-78293571D01*
X113835714Y-78293571D01*
X113835714Y-76793571D01*
X114335714Y-76793571D01*
X114478571Y-76865000D01*
X114550000Y-76936428D01*
X114621428Y-77079285D01*
X114621428Y-77222142D01*
X114550000Y-77365000D01*
X114478571Y-77436428D01*
X114335714Y-77507857D01*
X113835714Y-77507857D01*
X115192857Y-77293571D02*
X115550000Y-78293571D01*
X115907142Y-77293571D02*
X115550000Y-78293571D01*
X115407142Y-78650714D01*
X115335714Y-78722142D01*
X115192857Y-78793571D01*
X117621428Y-78293571D02*
X117621428Y-76793571D01*
X117621428Y-77507857D02*
X118478571Y-77507857D01*
X118478571Y-78293571D02*
X118478571Y-76793571D01*
X119764285Y-78222142D02*
X119621428Y-78293571D01*
X119335714Y-78293571D01*
X119192857Y-78222142D01*
X119121428Y-78079285D01*
X119121428Y-77507857D01*
X119192857Y-77365000D01*
X119335714Y-77293571D01*
X119621428Y-77293571D01*
X119764285Y-77365000D01*
X119835714Y-77507857D01*
X119835714Y-77650714D01*
X119121428Y-77793571D01*
X120478571Y-77293571D02*
X120478571Y-78293571D01*
X120478571Y-77436428D02*
X120550000Y-77365000D01*
X120692857Y-77293571D01*
X120907142Y-77293571D01*
X121050000Y-77365000D01*
X121121428Y-77507857D01*
X121121428Y-78293571D01*
X121835714Y-78293571D02*
X121835714Y-77293571D01*
X121835714Y-77579285D02*
X121907142Y-77436428D01*
X121978571Y-77365000D01*
X122121428Y-77293571D01*
X122264285Y-77293571D01*
X122621428Y-77293571D02*
X122978571Y-78293571D01*
X123335714Y-77293571D02*
X122978571Y-78293571D01*
X122835714Y-78650714D01*
X122764285Y-78722142D01*
X122621428Y-78793571D01*
X124978571Y-78222142D02*
X125192857Y-78293571D01*
X125550000Y-78293571D01*
X125692857Y-78222142D01*
X125764285Y-78150714D01*
X125835714Y-78007857D01*
X125835714Y-77865000D01*
X125764285Y-77722142D01*
X125692857Y-77650714D01*
X125550000Y-77579285D01*
X125264285Y-77507857D01*
X125121428Y-77436428D01*
X125050000Y-77365000D01*
X124978571Y-77222142D01*
X124978571Y-77079285D01*
X125050000Y-76936428D01*
X125121428Y-76865000D01*
X125264285Y-76793571D01*
X125621428Y-76793571D01*
X125835714Y-76865000D01*
X126478571Y-78293571D02*
X126478571Y-77293571D01*
X126478571Y-76793571D02*
X126407142Y-76865000D01*
X126478571Y-76936428D01*
X126550000Y-76865000D01*
X126478571Y-76793571D01*
X126478571Y-76936428D01*
X127407142Y-78293571D02*
X127264285Y-78222142D01*
X127192857Y-78079285D01*
X127192857Y-76793571D01*
X127835714Y-77293571D02*
X128192857Y-78293571D01*
X128550000Y-77293571D01*
X129764285Y-78293571D02*
X129764285Y-77507857D01*
X129692857Y-77365000D01*
X129550000Y-77293571D01*
X129264285Y-77293571D01*
X129121428Y-77365000D01*
X129764285Y-78222142D02*
X129621428Y-78293571D01*
X129264285Y-78293571D01*
X129121428Y-78222142D01*
X129050000Y-78079285D01*
X129050000Y-77936428D01*
X129121428Y-77793571D01*
X129264285Y-77722142D01*
X129621428Y-77722142D01*
X129764285Y-77650714D01*
D10*
X117400000Y-63867857D02*
X117435714Y-63903571D01*
X117400000Y-63939285D01*
X117364285Y-63903571D01*
X117400000Y-63867857D01*
X117400000Y-63939285D01*
X118600000Y-63867857D02*
X118635714Y-63903571D01*
X118600000Y-63939285D01*
X118564285Y-63903571D01*
X118600000Y-63867857D01*
X118600000Y-63939285D01*
X120703571Y-65507142D02*
X120739285Y-65400000D01*
X120739285Y-65221428D01*
X120703571Y-65150000D01*
X120667857Y-65114285D01*
X120596428Y-65078571D01*
X120525000Y-65078571D01*
X120453571Y-65114285D01*
X120417857Y-65150000D01*
X120382142Y-65221428D01*
X120346428Y-65364285D01*
X120310714Y-65435714D01*
X120275000Y-65471428D01*
X120203571Y-65507142D01*
X120132142Y-65507142D01*
X120060714Y-65471428D01*
X120025000Y-65435714D01*
X119989285Y-65364285D01*
X119989285Y-65185714D01*
X120025000Y-65078571D01*
X119989285Y-64864285D02*
X119989285Y-64435714D01*
X120739285Y-64650000D02*
X119989285Y-64650000D01*
X120525000Y-64221428D02*
X120525000Y-63864285D01*
X120739285Y-64292857D02*
X119989285Y-64042857D01*
X120739285Y-63792857D01*
X119989285Y-63650000D02*
X119989285Y-63221428D01*
X120739285Y-63435714D02*
X119989285Y-63435714D01*
X114139285Y-66532142D02*
X113389285Y-66532142D01*
X113389285Y-66246428D01*
X113425000Y-66175000D01*
X113460714Y-66139285D01*
X113532142Y-66103571D01*
X113639285Y-66103571D01*
X113710714Y-66139285D01*
X113746428Y-66175000D01*
X113782142Y-66246428D01*
X113782142Y-66532142D01*
X113389285Y-65639285D02*
X113389285Y-65496428D01*
X113425000Y-65425000D01*
X113496428Y-65353571D01*
X113639285Y-65317857D01*
X113889285Y-65317857D01*
X114032142Y-65353571D01*
X114103571Y-65425000D01*
X114139285Y-65496428D01*
X114139285Y-65639285D01*
X114103571Y-65710714D01*
X114032142Y-65782142D01*
X113889285Y-65817857D01*
X113639285Y-65817857D01*
X113496428Y-65782142D01*
X113425000Y-65710714D01*
X113389285Y-65639285D01*
X113389285Y-65067857D02*
X114139285Y-64889285D01*
X113603571Y-64746428D01*
X114139285Y-64603571D01*
X113389285Y-64425000D01*
X113746428Y-64139285D02*
X113746428Y-63889285D01*
X114139285Y-63782142D02*
X114139285Y-64139285D01*
X113389285Y-64139285D01*
X113389285Y-63782142D01*
X114139285Y-63032142D02*
X113782142Y-63282142D01*
X114139285Y-63460714D02*
X113389285Y-63460714D01*
X113389285Y-63175000D01*
X113425000Y-63103571D01*
X113460714Y-63067857D01*
X113532142Y-63032142D01*
X113639285Y-63032142D01*
X113710714Y-63067857D01*
X113746428Y-63103571D01*
X113782142Y-63175000D01*
X113782142Y-63460714D01*
X103400000Y-69867857D02*
X103435714Y-69903571D01*
X103400000Y-69939285D01*
X103364285Y-69903571D01*
X103400000Y-69867857D01*
X103400000Y-69939285D01*
X103600000Y-62267857D02*
X103635714Y-62303571D01*
X103600000Y-62339285D01*
X103564285Y-62303571D01*
X103600000Y-62267857D01*
X103600000Y-62339285D01*
X131000000Y-55667857D02*
X131035714Y-55703571D01*
X131000000Y-55739285D01*
X130964285Y-55703571D01*
X131000000Y-55667857D01*
X131000000Y-55739285D01*
X88660714Y-46117857D02*
X88660714Y-45760714D01*
X89410714Y-45760714D01*
X89053571Y-46367857D02*
X89053571Y-46617857D01*
X88660714Y-46725000D02*
X88660714Y-46367857D01*
X89410714Y-46367857D01*
X89410714Y-46725000D01*
X88660714Y-47046428D02*
X89410714Y-47046428D01*
X89410714Y-47225000D01*
X89375000Y-47332142D01*
X89303571Y-47403571D01*
X89232142Y-47439285D01*
X89089285Y-47475000D01*
X88982142Y-47475000D01*
X88839285Y-47439285D01*
X88767857Y-47403571D01*
X88696428Y-47332142D01*
X88660714Y-47225000D01*
X88660714Y-47046428D01*
X85775000Y-46228571D02*
X85810714Y-46157142D01*
X85810714Y-46050000D01*
X85775000Y-45942857D01*
X85703571Y-45871428D01*
X85632142Y-45835714D01*
X85489285Y-45800000D01*
X85382142Y-45800000D01*
X85239285Y-45835714D01*
X85167857Y-45871428D01*
X85096428Y-45942857D01*
X85060714Y-46050000D01*
X85060714Y-46121428D01*
X85096428Y-46228571D01*
X85132142Y-46264285D01*
X85382142Y-46264285D01*
X85382142Y-46121428D01*
X85060714Y-46585714D02*
X85810714Y-46585714D01*
X85060714Y-47014285D01*
X85810714Y-47014285D01*
X85060714Y-47371428D02*
X85810714Y-47371428D01*
X85810714Y-47550000D01*
X85775000Y-47657142D01*
X85703571Y-47728571D01*
X85632142Y-47764285D01*
X85489285Y-47800000D01*
X85382142Y-47800000D01*
X85239285Y-47764285D01*
X85167857Y-47728571D01*
X85096428Y-47657142D01*
X85060714Y-47550000D01*
X85060714Y-47371428D01*
X83410714Y-45800000D02*
X82660714Y-46050000D01*
X83410714Y-46300000D01*
X82732142Y-46978571D02*
X82696428Y-46942857D01*
X82660714Y-46835714D01*
X82660714Y-46764285D01*
X82696428Y-46657142D01*
X82767857Y-46585714D01*
X82839285Y-46550000D01*
X82982142Y-46514285D01*
X83089285Y-46514285D01*
X83232142Y-46550000D01*
X83303571Y-46585714D01*
X83375000Y-46657142D01*
X83410714Y-46764285D01*
X83410714Y-46835714D01*
X83375000Y-46942857D01*
X83339285Y-46978571D01*
X82732142Y-47728571D02*
X82696428Y-47692857D01*
X82660714Y-47585714D01*
X82660714Y-47514285D01*
X82696428Y-47407142D01*
X82767857Y-47335714D01*
X82839285Y-47300000D01*
X82982142Y-47264285D01*
X83089285Y-47264285D01*
X83232142Y-47300000D01*
X83303571Y-47335714D01*
X83375000Y-47407142D01*
X83410714Y-47514285D01*
X83410714Y-47585714D01*
X83375000Y-47692857D01*
X83339285Y-47728571D01*
X98850000Y-57875000D02*
X98778571Y-57839285D01*
X98671428Y-57839285D01*
X98564285Y-57875000D01*
X98492857Y-57946428D01*
X98457142Y-58017857D01*
X98421428Y-58160714D01*
X98421428Y-58267857D01*
X98457142Y-58410714D01*
X98492857Y-58482142D01*
X98564285Y-58553571D01*
X98671428Y-58589285D01*
X98742857Y-58589285D01*
X98850000Y-58553571D01*
X98885714Y-58517857D01*
X98885714Y-58267857D01*
X98742857Y-58267857D01*
X99207142Y-58589285D02*
X99207142Y-57839285D01*
X99492857Y-57839285D01*
X99564285Y-57875000D01*
X99600000Y-57910714D01*
X99635714Y-57982142D01*
X99635714Y-58089285D01*
X99600000Y-58160714D01*
X99564285Y-58196428D01*
X99492857Y-58232142D01*
X99207142Y-58232142D01*
X99957142Y-58589285D02*
X99957142Y-57839285D01*
X100457142Y-57839285D02*
X100600000Y-57839285D01*
X100671428Y-57875000D01*
X100742857Y-57946428D01*
X100778571Y-58089285D01*
X100778571Y-58339285D01*
X100742857Y-58482142D01*
X100671428Y-58553571D01*
X100600000Y-58589285D01*
X100457142Y-58589285D01*
X100385714Y-58553571D01*
X100314285Y-58482142D01*
X100278571Y-58339285D01*
X100278571Y-58089285D01*
X100314285Y-57946428D01*
X100385714Y-57875000D01*
X100457142Y-57839285D01*
X96028571Y-57875000D02*
X95957142Y-57839285D01*
X95850000Y-57839285D01*
X95742857Y-57875000D01*
X95671428Y-57946428D01*
X95635714Y-58017857D01*
X95600000Y-58160714D01*
X95600000Y-58267857D01*
X95635714Y-58410714D01*
X95671428Y-58482142D01*
X95742857Y-58553571D01*
X95850000Y-58589285D01*
X95921428Y-58589285D01*
X96028571Y-58553571D01*
X96064285Y-58517857D01*
X96064285Y-58267857D01*
X95921428Y-58267857D01*
X96385714Y-58589285D02*
X96385714Y-57839285D01*
X96814285Y-58589285D01*
X96814285Y-57839285D01*
X97171428Y-58589285D02*
X97171428Y-57839285D01*
X97350000Y-57839285D01*
X97457142Y-57875000D01*
X97528571Y-57946428D01*
X97564285Y-58017857D01*
X97600000Y-58160714D01*
X97600000Y-58267857D01*
X97564285Y-58410714D01*
X97528571Y-58482142D01*
X97457142Y-58553571D01*
X97350000Y-58589285D01*
X97171428Y-58589285D01*
%TO.C,J7*%
X96930000Y-67070000D02*
X96930000Y-69730000D01*
X99530000Y-67070000D02*
X96930000Y-67070000D01*
X99530000Y-69730000D02*
X96930000Y-69730000D01*
X99530000Y-67070000D02*
X99530000Y-69730000D01*
X100800000Y-67070000D02*
X102130000Y-67070000D01*
X102130000Y-67070000D02*
X102130000Y-68400000D01*
%TO.C,U1*%
X108090000Y-72100000D02*
X108090000Y-74550000D01*
X111310000Y-73900000D02*
X111310000Y-72100000D01*
%TO.C,C1*%
X106710000Y-75837221D02*
X106710000Y-76162779D01*
X105690000Y-75837221D02*
X105690000Y-76162779D01*
%TO.C,C2*%
X109537221Y-70010000D02*
X109862779Y-70010000D01*
X109537221Y-68990000D02*
X109862779Y-68990000D01*
%TO.C,C3*%
X100990000Y-44162779D02*
X100990000Y-43837221D01*
X102010000Y-44162779D02*
X102010000Y-43837221D01*
%TO.C,C4*%
X100310000Y-44162779D02*
X100310000Y-43837221D01*
X99290000Y-44162779D02*
X99290000Y-43837221D01*
%TO.C,C5*%
X130310000Y-48162779D02*
X130310000Y-47837221D01*
X129290000Y-48162779D02*
X129290000Y-47837221D01*
%TO.C,C6*%
X102010000Y-47087221D02*
X102010000Y-47412779D01*
X100990000Y-47087221D02*
X100990000Y-47412779D01*
%TO.C,D1*%
X104400000Y-72500000D02*
X100550000Y-72500000D01*
X104400000Y-70500000D02*
X100550000Y-70500000D01*
X104400000Y-72500000D02*
X104400000Y-70500000D01*
%TO.C,D2*%
X115985000Y-65797500D02*
X115985000Y-63512500D01*
X114515000Y-65797500D02*
X115985000Y-65797500D01*
X114515000Y-63512500D02*
X114515000Y-65797500D01*
%TO.C,D3*%
X118015000Y-63550000D02*
X118015000Y-65835000D01*
X118015000Y-65835000D02*
X119485000Y-65835000D01*
X119485000Y-65835000D02*
X119485000Y-63550000D01*
%TO.C,J1*%
X133750000Y-55325000D02*
X133300000Y-55725000D01*
X133300000Y-55725000D02*
X133300000Y-54925000D01*
X133300000Y-54925000D02*
X133750000Y-55325000D01*
X139350000Y-50175000D02*
X136550000Y-50175000D01*
X136550000Y-50175000D02*
X136550000Y-49875000D01*
X136550000Y-49875000D02*
X135000000Y-49875000D01*
X139350000Y-57875000D02*
X136550000Y-57875000D01*
X136550000Y-58175000D02*
X136550000Y-57875000D01*
X136550000Y-58175000D02*
X135000000Y-58175000D01*
%TO.C,J2*%
X88000000Y-66700000D02*
X90000000Y-66700000D01*
X83890000Y-80110000D02*
X83890000Y-77050000D01*
X94110000Y-80110000D02*
X83890000Y-80110000D01*
X94110000Y-77050000D02*
X94110000Y-80110000D01*
X94110000Y-66890000D02*
X94110000Y-72950000D01*
X91300000Y-66890000D02*
X94110000Y-66890000D01*
X83890000Y-66890000D02*
X86700000Y-66890000D01*
X83890000Y-72950000D02*
X83890000Y-66890000D01*
%TO.C,J3*%
X82380000Y-45330000D02*
X82380000Y-44000000D01*
X83710000Y-45330000D02*
X82380000Y-45330000D01*
X84980000Y-45330000D02*
X84980000Y-42670000D01*
X84980000Y-42670000D02*
X90120000Y-42670000D01*
X84980000Y-45330000D02*
X90120000Y-45330000D01*
X90120000Y-45330000D02*
X90120000Y-42670000D01*
%TO.C,J6*%
X95420000Y-54920000D02*
X95420000Y-57580000D01*
X98020000Y-54920000D02*
X95420000Y-54920000D01*
X98020000Y-57580000D02*
X95420000Y-57580000D01*
X98020000Y-54920000D02*
X98020000Y-57580000D01*
X99290000Y-54920000D02*
X100620000Y-54920000D01*
X100620000Y-54920000D02*
X100620000Y-56250000D01*
%TO.C,Q1*%
X103780000Y-74740000D02*
X103780000Y-76200000D01*
X100620000Y-74740000D02*
X100620000Y-76900000D01*
X100620000Y-74740000D02*
X101550000Y-74740000D01*
X103780000Y-74740000D02*
X102850000Y-74740000D01*
D12*
%TO.C,Q2*%
X123601500Y-65097560D02*
X123601500Y-65699540D01*
X123601500Y-65699540D02*
X124399060Y-65699540D01*
X123601500Y-63502440D02*
X123601500Y-62900460D01*
X123601500Y-62900460D02*
X124399060Y-62900460D01*
%TO.C,Q3*%
X131998500Y-65699540D02*
X131200940Y-65699540D01*
X131998500Y-65097560D02*
X131998500Y-65699540D01*
X131998500Y-62900460D02*
X131200940Y-62900460D01*
X131998500Y-63502440D02*
X131998500Y-62900460D01*
D10*
%TO.C,R1*%
X99210000Y-72087221D02*
X99210000Y-72412779D01*
X98190000Y-72087221D02*
X98190000Y-72412779D01*
%TO.C,R2*%
X112490000Y-73237221D02*
X112490000Y-73562779D01*
X113510000Y-73237221D02*
X113510000Y-73562779D01*
%TO.C,R3*%
X115837221Y-66890000D02*
X116162779Y-66890000D01*
X115837221Y-67910000D02*
X116162779Y-67910000D01*
%TO.C,R4*%
X119437221Y-67910000D02*
X119762779Y-67910000D01*
X119437221Y-66890000D02*
X119762779Y-66890000D01*
%TO.C,R6*%
X127662779Y-48760000D02*
X127337221Y-48760000D01*
X127662779Y-47740000D02*
X127337221Y-47740000D01*
%TO.C,R7*%
X127637221Y-65810000D02*
X127962779Y-65810000D01*
X127637221Y-64790000D02*
X127962779Y-64790000D01*
%TO.C,R8*%
X127962779Y-63810000D02*
X127637221Y-63810000D01*
X127962779Y-62790000D02*
X127637221Y-62790000D01*
%TO.C,SW1*%
X130800000Y-44450000D02*
X130800000Y-44550000D01*
X126400000Y-46050000D02*
X130800000Y-46050000D01*
X130800000Y-42950000D02*
X126400000Y-42950000D01*
X126400000Y-44450000D02*
X126400000Y-44550000D01*
%TO.C,U2*%
X103880000Y-42310000D02*
X103500000Y-42310000D01*
X103880000Y-35890000D02*
X103880000Y-42310000D01*
X122120000Y-35890000D02*
X122120000Y-42310000D01*
X103880000Y-35890000D02*
X122120000Y-35890000D01*
X122120000Y-61635000D02*
X121120000Y-61635000D01*
X122120000Y-60855000D02*
X122120000Y-61635000D01*
X103880000Y-61635000D02*
X104880000Y-61635000D01*
X103880000Y-60855000D02*
X103880000Y-61635000D01*
%TO.C,U3*%
X130135000Y-54860000D02*
X130610000Y-54860000D01*
X126390000Y-50640000D02*
X126390000Y-51115000D01*
X126865000Y-50640000D02*
X126390000Y-50640000D01*
X130610000Y-50640000D02*
X130610000Y-51115000D01*
X130135000Y-50640000D02*
X130610000Y-50640000D01*
X126390000Y-54860000D02*
X126390000Y-54385000D01*
X126865000Y-54860000D02*
X126390000Y-54860000D01*
%TD*%
M02*
