M48
; DRILL file {KiCad (5.1.6)-1} date 06/23/20 15:14:09
; FORMAT={-:-/ absolute / inch / decimal}
; #@! TF.CreationDate,2020-06-23T15:14:09-07:00
; #@! TF.GenerationSoftware,Kicad,Pcbnew,(5.1.6)-1
; #@! TF.FileFunction,Plated,1,2,PTH
FMAT,2
INCH
T1C0.0157
T2C0.0197
T3C0.0256
T4C0.0276
T5C0.0300
T6C0.0394
T7C0.1260
%
G90
G05
T1
X3.5039Y-2.7854
X3.5039Y-2.8346
X3.5039Y-3.1102
X3.7008Y-1.8701
X4.0059Y-2.1063
X4.1319Y-2.687
X4.1319Y-2.7264
X4.1713Y-2.687
X4.1713Y-2.7264
X4.1713Y-2.7657
X4.2106Y-2.687
X4.2106Y-2.7264
X4.2106Y-2.7657
X4.2106Y-2.8051
X4.2126Y-1.811
X4.25Y-2.687
X4.2894Y-2.687
X4.5906Y-2.4961
X4.9921Y-1.8425
X5.0Y-2.1949
X5.0118Y-2.6299
X5.1575Y-1.8819
X5.1732Y-1.937
X5.1772Y-1.9882
X5.2165Y-2.0571
X5.2165Y-2.1161
X5.2205Y-2.4803
X5.2441Y-2.189
T2
X2.9764Y-1.811
X3.0041Y-1.7442
X3.0041Y-1.8778
X3.0709Y-1.7165
X3.0709Y-1.9055
X3.1377Y-1.7442
X3.1377Y-1.8778
X3.1654Y-1.811
X5.2598Y-2.9921
X5.2875Y-2.9253
X5.2875Y-3.0589
X5.3543Y-2.8976
X5.3543Y-3.0866
X5.4211Y-2.9253
X5.4211Y-3.0589
X5.4488Y-2.9921
X2.9764Y-2.9921
X3.0041Y-2.9253
X3.0041Y-3.0589
X3.0709Y-2.8976
X3.0709Y-3.0866
X3.1377Y-2.9253
X3.1377Y-3.0589
X3.1654Y-2.9921
X5.2598Y-1.811
X5.2875Y-1.7442
X5.2875Y-1.8778
X5.3543Y-1.7165
X5.3543Y-1.9055
X5.4211Y-1.7442
X5.4211Y-1.8778
X5.4488Y-1.811
T5
X3.4173Y-1.811
X3.4173Y-1.8583
X3.4409Y-1.8976
X3.4646Y-1.811
X3.4646Y-1.8583
X3.5512Y-2.5591
X3.5984Y-2.5591
X3.8878Y-1.8209
X3.937Y-1.8209
X3.937Y-1.8701
X4.8819Y-2.3622
T6
X3.8685Y-2.6929
X3.9685Y-2.6929
X3.8091Y-2.2146
X3.9091Y-2.2146
X3.2957Y-1.7323
X3.3957Y-1.7323
X3.4957Y-1.7323
T7
X3.0709Y-1.811
X5.3543Y-2.9921
X3.0709Y-2.9921
X5.3543Y-1.811
T3
G00X5.3122Y-2.0317
M15
G01X5.2965Y-2.0317
M16
G05
G00X5.3122Y-2.2222
M15
G01X5.2965Y-2.2222
M16
G05
T4
G00X5.4323Y-2.0195
M15
G01X5.4126Y-2.0195
M16
G05
G00X5.4323Y-2.2344
M15
G01X5.4126Y-2.2344
M16
G05
T6
G00X3.3268Y-2.9232
M15
G01X3.3268Y-2.9823
M16
G05
G00X3.4646Y-2.6772
M15
G01X3.5433Y-2.6772
M16
G05
G00X3.4783Y-2.9134
M15
G01X3.5295Y-2.9134
M16
G05
G00X3.6811Y-2.9232
M15
G01X3.6811Y-2.9823
M16
G05
T0
M30
